<?xml version="1.0" encoding="UTF-8"?>
<svg version="1.1" xmlns="http://www.w3.org/2000/svg" width="180" height="180">
<path d="M0 0 C0.72445312 -0.00386719 1.44890625 -0.00773438 2.1953125 -0.01171875 C5.39282879 -0.00581927 7.94582607 0.10694202 11 1.125 C11 2.445 11 3.765 11 5.125 C11.93972656 5.07279297 11.93972656 5.07279297 12.8984375 5.01953125 C13.71570313 4.99246094 14.53296875 4.96539063 15.375 4.9375 C16.59316406 4.88529297 16.59316406 4.88529297 17.8359375 4.83203125 C18.55007812 4.92871094 19.26421875 5.02539062 20 5.125 C20.99 6.61 20.99 6.61 22 8.125 C24.41607417 8.92298218 24.41607417 8.92298218 27.125 9.3125 C28.03507812 9.47105469 28.94515625 9.62960938 29.8828125 9.79296875 C30.58148438 9.90253906 31.28015625 10.01210938 32 10.125 C32.495 12.105 32.495 12.105 33 14.125 C35.01822917 14.02734375 37.03645833 13.9296875 39.0546875 13.83203125 C39.69664062 13.92871094 40.33859375 14.02539062 41 14.125 C41.99 15.61 41.99 15.61 43 17.125 C45.17897492 18.13305555 45.17897492 18.13305555 47.625 18.8125 C48.85089844 19.18955078 48.85089844 19.18955078 50.1015625 19.57421875 C50.72804688 19.75597656 51.35453125 19.93773438 52 20.125 C52 21.115 52 22.105 52 23.125 C53.8871875 23.00125 53.8871875 23.00125 55.8125 22.875 C58.046875 22.86328125 58.046875 22.86328125 60 23.125 C61.04625409 24.42235507 62.04701223 25.75766972 63 27.125 C65.31 27.455 67.62 27.785 70 28.125 C70 59.145 70 90.165 70 122.125 C66.535 122.62 66.535 122.62 63 123.125 C62.525625 123.805625 62.05125 124.48625 61.5625 125.1875 C60 127.125 60 127.125 58.046875 127.38671875 C56.02939069 127.37613754 54.01318842 127.25701236 52 127.125 C51.67 128.445 51.34 129.765 51 131.125 C48.98177083 131.54817708 46.96354167 131.97135417 44.9453125 132.39453125 C42.62953451 133.04808838 42.62953451 133.04808838 41 136.125 C39.0546875 136.41796875 39.0546875 136.41796875 36.875 136.3125 C35.59625 136.250625 34.3175 136.18875 33 136.125 C32.67 137.445 32.34 138.765 32 140.125 C31.30132812 140.23457031 30.60265625 140.34414062 29.8828125 140.45703125 C28.97273438 140.61558594 28.06265625 140.77414063 27.125 140.9375 C26.22007813 141.08832031 25.31515625 141.23914063 24.3828125 141.39453125 C21.65587522 141.95551301 21.65587522 141.95551301 20 145.125 C17.8359375 145.41796875 17.8359375 145.41796875 15.375 145.3125 C14.55773437 145.28542969 13.74046875 145.25835937 12.8984375 145.23046875 C12.27195312 145.19566406 11.64546875 145.16085938 11 145.125 C11 146.445 11 147.765 11 149.125 C7.29553447 150.35982184 3.8556992 150.27058202 0 150.25 C-1.08667969 150.25580078 -1.08667969 150.25580078 -2.1953125 150.26171875 C-5.39282879 150.25581927 -7.94582607 150.14305798 -11 149.125 C-11 147.805 -11 146.485 -11 145.125 C-13.97 145.125 -16.94 145.125 -20 145.125 C-20.33 144.135 -20.66 143.145 -21 142.125 C-24.63 141.465 -28.26 140.805 -32 140.125 C-32.33 138.805 -32.66 137.485 -33 136.125 C-34.11375 136.145625 -35.2275 136.16625 -36.375 136.1875 C-40 136.125 -40 136.125 -42 135.125 C-42 134.135 -42 133.145 -42 132.125 C-44.97 131.795 -47.94 131.465 -51 131.125 C-51.495 129.145 -51.495 129.145 -52 127.125 C-54.64 127.125 -57.28 127.125 -60 127.125 C-60.495 124.65 -60.495 124.65 -61 122.125 C-63.97 122.125 -66.94 122.125 -70 122.125 C-70 91.105 -70 60.085 -70 28.125 C-67.03 28.125 -64.06 28.125 -61 28.125 C-60.67 26.475 -60.34 24.825 -60 23.125 C-57.36 23.125 -54.72 23.125 -52 23.125 C-51.67 21.805 -51.34 20.485 -51 19.125 C-48.03 18.795 -45.06 18.465 -42 18.125 C-42 17.135 -42 16.145 -42 15.125 C-39.04335481 13.6466774 -36.25770263 14.06467217 -33 14.125 C-32.67 12.805 -32.34 11.485 -32 10.125 C-26.555 9.135 -26.555 9.135 -21 8.125 C-20.67 7.135 -20.34 6.145 -20 5.125 C-17.03 5.125 -14.06 5.125 -11 5.125 C-11 3.805 -11 2.485 -11 1.125 C-7.29553447 -0.10982184 -3.8556992 -0.02058202 0 0 Z " fill="#F9CB15" transform="translate(90,14.875)"/>
<path d="M0 0 C1.98 0 3.96 0 6 0 C6 29.37 6 58.74 6 89 C2.535 89.495 2.535 89.495 -1 90 C-1.474375 90.680625 -1.94875 91.36125 -2.4375 92.0625 C-4 94 -4 94 -5.953125 94.26171875 C-7.97060931 94.25113754 -9.98681158 94.13201236 -12 94 C-12.495 95.98 -12.495 95.98 -13 98 C-15.01822917 98.42317708 -17.03645833 98.84635417 -19.0546875 99.26953125 C-21.37046549 99.92308838 -21.37046549 99.92308838 -23 103 C-24.9453125 103.29296875 -24.9453125 103.29296875 -27.125 103.1875 C-28.40375 103.125625 -29.6825 103.06375 -31 103 C-31.495 104.98 -31.495 104.98 -32 107 C-32.69867188 107.10957031 -33.39734375 107.21914062 -34.1171875 107.33203125 C-35.02726562 107.49058594 -35.93734375 107.64914063 -36.875 107.8125 C-37.77992187 107.96332031 -38.68484375 108.11414063 -39.6171875 108.26953125 C-42.34412478 108.83051301 -42.34412478 108.83051301 -44 112 C-46.1640625 112.29296875 -46.1640625 112.29296875 -48.625 112.1875 C-49.44226563 112.16042969 -50.25953125 112.13335937 -51.1015625 112.10546875 C-51.72804688 112.07066406 -52.35453125 112.03585938 -53 112 C-53 113.32 -53 114.64 -53 116 C-56 117 -56 117 -65 117 C-65 88.95 -65 60.9 -65 32 C-55 28 -55 28 -52 28 C-52 27.34 -52 26.68 -52 26 C-51.31292969 25.81824219 -50.62585938 25.63648437 -49.91796875 25.44921875 C-49.01691406 25.19785156 -48.11585937 24.94648437 -47.1875 24.6875 C-46.29417969 24.44386719 -45.40085937 24.20023438 -44.48046875 23.94921875 C-41.91059876 22.96578819 -40.86180794 21.94840366 -39 20 C-36.3125 19.8125 -36.3125 19.8125 -34 20 C-33.90203125 19.36964844 -33.8040625 18.73929688 -33.703125 18.08984375 C-33.47109375 17.40019531 -33.2390625 16.71054688 -33 16 C-30.32847101 14.81836218 -27.76792382 13.90457751 -25 13 C-22.74470242 12.18111219 -20.49492724 11.34690386 -18.25 10.5 C-17.16203125 10.0978125 -16.0740625 9.695625 -14.953125 9.28125 C-12.23433871 8.10167076 -10.29729819 6.83485505 -8 5 C-6 4 -4 3 -2 2 C-1.34 1.34 -0.68 0.68 0 0 Z " fill="#FE4001" transform="translate(154,48)"/>
<path d="M0 0 C0.72445312 -0.00386719 1.44890625 -0.00773438 2.1953125 -0.01171875 C5.39282879 -0.00581927 7.94582607 0.10694202 11 1.125 C11 2.445 11 3.765 11 5.125 C11.93972656 5.07279297 11.93972656 5.07279297 12.8984375 5.01953125 C13.71570313 4.99246094 14.53296875 4.96539063 15.375 4.9375 C16.59316406 4.88529297 16.59316406 4.88529297 17.8359375 4.83203125 C18.55007812 4.92871094 19.26421875 5.02539062 20 5.125 C20.99 6.61 20.99 6.61 22 8.125 C24.41607417 8.92298218 24.41607417 8.92298218 27.125 9.3125 C28.03507812 9.47105469 28.94515625 9.62960938 29.8828125 9.79296875 C30.58148438 9.90253906 31.28015625 10.01210938 32 10.125 C32.495 12.105 32.495 12.105 33 14.125 C35.01822917 14.02734375 37.03645833 13.9296875 39.0546875 13.83203125 C39.69664062 13.92871094 40.33859375 14.02539062 41 14.125 C41.99 15.61 41.99 15.61 43 17.125 C45.17897492 18.13305555 45.17897492 18.13305555 47.625 18.8125 C48.85089844 19.18955078 48.85089844 19.18955078 50.1015625 19.57421875 C50.72804688 19.75597656 51.35453125 19.93773438 52 20.125 C52 21.115 52 22.105 52 23.125 C53.8871875 23.00125 53.8871875 23.00125 55.8125 22.875 C58.046875 22.86328125 58.046875 22.86328125 60 23.125 C61.04625409 24.42235507 62.04701223 25.75766972 63 27.125 C66.60465748 27.93814911 66.60465748 27.93814911 70 28.125 C70 29.775 70 31.425 70 33.125 C68.9275 33.393125 67.855 33.66125 66.75 33.9375 C63.30701205 35.02777952 61.72386782 35.9283324 59 38.125 C52.08920053 41.81075972 44.92274151 44.56380815 37.55078125 47.16015625 C34.17196545 48.43166233 34.17196545 48.43166233 31 50.125 C30.67 51.115 30.34 52.105 30 53.125 C28.01751285 53.84206982 26.01584651 54.50790413 24 55.125 C23.01 56.115 23.01 56.115 22 57.125 C19.6171875 57.7578125 19.6171875 57.7578125 16.875 58.25 C15.50988281 58.50136719 15.50988281 58.50136719 14.1171875 58.7578125 C13.41851562 58.87898438 12.71984375 59.00015625 12 59.125 C12 59.785 12 60.445 12 61.125 C10.25093469 61.77336042 8.50070781 62.41858784 6.75 63.0625 C5.28820312 63.60197266 5.28820312 63.60197266 3.796875 64.15234375 C1.53542839 64.93879655 -0.66796552 65.59751601 -3 66.125 C-3 65.465 -3 64.805 -3 64.125 C-4.27875 63.856875 -5.5575 63.58875 -6.875 63.3125 C-10.49675855 62.55309901 -10.80051868 62.42422197 -13 59.125 C-14.96720017 58.66598663 -16.93532084 58.21012083 -18.91015625 57.78515625 C-22.35035109 56.6984405 -24.34602749 54.54306384 -27 52.125 C-27.94875 51.568125 -28.8975 51.01125 -29.875 50.4375 C-30.57625 50.004375 -31.2775 49.57125 -32 49.125 C-32 48.465 -32 47.805 -32 47.125 C-32.6290625 47.01542969 -33.258125 46.90585937 -33.90625 46.79296875 C-41.6690273 45.3549844 -48.29755465 43.35812338 -55 39.125 C-56.03125 38.609375 -57.0625 38.09375 -58.125 37.5625 C-61 36.125 -61 36.125 -64 34.125 C-65.9896995 33.73486284 -67.99019869 33.39297351 -70 33.125 C-70 31.475 -70 29.825 -70 28.125 C-67.03 28.125 -64.06 28.125 -61 28.125 C-60.67 26.475 -60.34 24.825 -60 23.125 C-57.36 23.125 -54.72 23.125 -52 23.125 C-51.67 21.805 -51.34 20.485 -51 19.125 C-48.03 18.795 -45.06 18.465 -42 18.125 C-42 17.135 -42 16.145 -42 15.125 C-39.04335481 13.6466774 -36.25770263 14.06467217 -33 14.125 C-32.67 12.805 -32.34 11.485 -32 10.125 C-26.555 9.135 -26.555 9.135 -21 8.125 C-20.67 7.135 -20.34 6.145 -20 5.125 C-17.03 5.125 -14.06 5.125 -11 5.125 C-11 3.805 -11 2.485 -11 1.125 C-7.29553447 -0.10982184 -3.8556992 -0.02058202 0 0 Z " fill="#15B854" transform="translate(90,14.875)"/>
<path d="M0 0 C1.47668858 0.0133035 2.95331108 0.03716415 4.4296875 0.0703125 C5.18378906 0.07933594 5.93789062 0.08835937 6.71484375 0.09765625 C8.57826004 0.1212438 10.44151343 0.15711531 12.3046875 0.1953125 C14.5329758 4.8565875 15.67568029 8.12948197 15.4921875 13.3828125 C15.45158203 14.88908203 15.45158203 14.88908203 15.41015625 16.42578125 C15.37535156 17.33972656 15.34054688 18.25367187 15.3046875 19.1953125 C14.98545275 23.13213062 14.98545275 23.13213062 16.8046875 25.9453125 C18.74574903 30.1509458 18.67616739 32.58896187 18.3046875 37.1953125 C17.3046875 39.6953125 17.3046875 39.6953125 16.3046875 41.1953125 C15.6446875 41.1953125 14.9846875 41.1953125 14.3046875 41.1953125 C14.06878906 41.7625 13.83289063 42.3296875 13.58984375 42.9140625 C9.27548258 50.57238141 1.29683999 55.23474123 -6.6953125 58.1953125 C-8.36748678 58.89054416 -10.03434256 59.59872208 -11.6953125 60.3203125 C-12.4378125 60.63226563 -13.1803125 60.94421875 -13.9453125 61.265625 C-15.87672904 62.07475382 -15.87672904 62.07475382 -16.6953125 64.1953125 C-22.75 64.390625 -22.75 64.390625 -24.6953125 64.1953125 C-27.16514155 61.72548345 -26.94763523 61.0237118 -26.95410156 57.62548828 C-26.96040588 56.67755402 -26.96671021 55.72961975 -26.97320557 54.75296021 C-26.9691571 53.72588959 -26.96510864 52.69881897 -26.9609375 51.640625 C-26.96285095 50.58753143 -26.9647644 49.53443787 -26.96673584 48.44943237 C-26.96809876 46.21840171 -26.96439493 43.98736315 -26.95605469 41.75634766 C-26.94537808 38.34128958 -26.95593559 34.92676014 -26.96875 31.51171875 C-26.96742801 29.346353 -26.96486479 27.18098759 -26.9609375 25.015625 C-26.96498596 23.99260284 -26.96903442 22.96958069 -26.97320557 21.91555786 C-26.96690125 20.96131927 -26.96059692 20.00708069 -26.95410156 19.02392578 C-26.95251038 18.18612579 -26.95091919 17.34832581 -26.94927979 16.48513794 C-26.66747696 13.9443411 -26.06437545 12.34643794 -24.6953125 10.1953125 C-22.3828125 9 -22.3828125 9 -19.6953125 8.0703125 C-15.82522026 6.74328737 -15.82522026 6.74328737 -12.6953125 4.1953125 C-10.36197917 3.52864583 -8.02864583 2.86197917 -5.6953125 2.1953125 C-3.6953125 0.1953125 -3.6953125 0.1953125 0 0 Z " fill="#FFBBA5" transform="translate(129.6953125,75.8046875)"/>
<path d="M0 0 C7.67230007 1.83557717 7.67230007 1.83557717 9.65234375 4.4921875 C10.39126055 6.57952309 10.884433 8.66922516 11.40625 10.8203125 C12.08966349 12.3111566 12.79883827 13.79041917 13.53125 15.2578125 C15.33260111 19.18803311 15.93555565 22.67093964 16.1328125 26.97265625 C16.25514227 29.0665181 16.25514227 29.0665181 18.40625 30.8203125 C18.7909378 32.72380473 19.09226935 34.64468926 19.34375 36.5703125 C20.04400993 41.22203917 21.08942165 44.69031413 23.40625 48.8203125 C24.76842768 53.40218286 24.4991311 58.08337633 24.40625 62.8203125 C21.15625 63.0703125 21.15625 63.0703125 17.40625 62.8203125 C15.21875 60.9453125 15.21875 60.9453125 13.40625 58.8203125 C12.705 58.5521875 12.00375 58.2840625 11.28125 58.0078125 C9.40625 56.8203125 9.40625 56.8203125 8.59375 53.4453125 C7.38055939 49.74188853 7.17989641 49.22254929 4.09375 47.3203125 C0.39183669 45.81444946 -0.95033385 45.36294604 -4.59375 46.8203125 C-5.25375 47.4803125 -5.91375 48.1403125 -6.59375 48.8203125 C-11.45963799 49.37869309 -13.52166041 49.52045264 -17.65625 46.8203125 C-19.83124154 43.45258367 -19.89366443 41.74396191 -19.109375 37.8515625 C-18.93921875 37.18125 -18.7690625 36.5109375 -18.59375 35.8203125 C-18.325625 34.7065625 -18.0575 33.5928125 -17.78125 32.4453125 C-14.44359326 22.25667614 -14.44359326 22.25667614 -12.59375 18.8203125 C-11.60375 18.4903125 -10.61375 18.1603125 -9.59375 17.8203125 C-9.59375 14.5203125 -9.59375 11.2203125 -9.59375 7.8203125 C-8.27375 7.4903125 -6.95375 7.1603125 -5.59375 6.8203125 C-5.655625 6.0365625 -5.7175 5.2528125 -5.78125 4.4453125 C-5.719375 3.5790625 -5.6575 2.7128125 -5.59375 1.8203125 C-2.59375 -0.1796875 -2.59375 -0.1796875 0 0 Z " fill="#FEF0BE" transform="translate(53.59375,77.1796875)"/>
<path d="M0 0 C0.70020264 0.165 1.40040527 0.33 2.12182617 0.5 C4.08203125 1.01953125 4.08203125 1.01953125 7.1875 2.1875 C7.6825 3.6725 7.6825 3.6725 8.1875 5.1875 C9.0125 5.5175 9.8375 5.8475 10.6875 6.1875 C11.5125 6.5175 12.3375 6.8475 13.1875 7.1875 C13.6825 8.6725 13.6825 8.6725 14.1875 10.1875 C16.18766466 11.39632096 16.18766466 11.39632096 18.1875 12.1875 C18.23004356 14.18704746 18.22830783 16.18791636 18.1875 18.1875 C17.1875 19.1875 17.1875 19.1875 13.9375 19.375 C8.06985294 19.08161765 8.06985294 19.08161765 5.1875 17.1875 C4.878125 16.053125 4.56875 14.91875 4.25 13.75 C3.51872541 10.10357621 3.51872541 10.10357621 0.875 8.25 C-8.09706484 5.66482878 -16.43569668 6.46234854 -24.75390625 10.67578125 C-27.14156974 12.13393562 -27.14156974 12.13393562 -28 15.5 C-27.938125 16.386875 -27.87625 17.27375 -27.8125 18.1875 C-26.86375 18.496875 -25.915 18.80625 -24.9375 19.125 C-21.8125 20.1875 -21.8125 20.1875 -19.8125 21.1875 C-16.61819317 21.55748279 -13.42723992 21.90727864 -10.22265625 22.17382812 C-8.21875 22.39453125 -8.21875 22.39453125 -4.8125 23.1875 C-3.34375 25.26171875 -3.34375 25.26171875 -2.8125 27.1875 C-6.55060695 29.05655348 -11.01081178 28.45866522 -15.125 28.5 C-16.07568359 28.52900391 -17.02636719 28.55800781 -18.00585938 28.58789062 C-25.09777018 28.65231749 -25.09777018 28.65231749 -28.68359375 26.3203125 C-29.38613281 25.61648437 -30.08867188 24.91265625 -30.8125 24.1875 C-33.15205588 22.92338513 -35.52038881 21.77000979 -37.921875 20.62890625 C-39.8125 19.1875 -39.8125 19.1875 -40.578125 16.52734375 C-40.69414063 15.36912109 -40.69414063 15.36912109 -40.8125 14.1875 C-41.4725 14.1875 -42.1325 14.1875 -42.8125 14.1875 C-42.8125 11.06923311 -42.50196059 8.93963882 -40.3515625 6.59375 C-28.22684859 -3.10602113 -14.57878221 -3.47681817 0 0 Z " fill="#8ED199" transform="translate(102.8125,34.8125)"/>
<path d="M0 0 C0.99 0 1.98 0 3 0 C3 0.99 3 1.98 3 3 C4.32 3.33 5.64 3.66 7 4 C7.16966615 8.41131991 7.00075325 11.12354057 5 15 C4.5003694 19.24623012 4.5003694 19.24623012 6.4765625 22.83203125 C8.95852717 26.3640579 8.7100301 29.66613549 8.6171875 33.875 C7.56167145 39.21938506 4.3277675 42.82026158 0 46 C-2.76953125 46.73828125 -2.76953125 46.73828125 -5 47 C-5.33 47.99 -5.66 48.98 -6 50 C-7.98567708 50.16276042 -9.97135417 50.32552083 -11.95703125 50.48828125 C-14.08899716 50.81960011 -14.08899716 50.81960011 -15.3347168 52.48901367 C-17.46922557 54.42574946 -18.8461953 54.48160836 -21.6875 54.6875 C-22.49574219 54.75324219 -23.30398437 54.81898438 -24.13671875 54.88671875 C-24.75160156 54.92410156 -25.36648437 54.96148437 -26 55 C-26.02469669 48.93107399 -26.04285842 42.86217717 -26.05493164 36.79321289 C-26.05996414 34.72810354 -26.06679069 32.66299776 -26.07543945 30.59790039 C-26.08755236 27.63166422 -26.09323911 24.66547511 -26.09765625 21.69921875 C-26.10539818 20.31158577 -26.10539818 20.31158577 -26.11329651 18.8959198 C-26.11337204 18.03525406 -26.11344757 17.17458832 -26.11352539 16.2878418 C-26.115746 15.53061325 -26.11796661 14.7733847 -26.12025452 13.99320984 C-26 12 -26 12 -25 9 C-21.7 8.67 -18.4 8.34 -15 8 C-16.32 8.99 -17.64 9.98 -19 11 C-19.48517403 14.42764055 -19.48517403 14.42764055 -19.25 18.1875 C-19.21390625 19.45980469 -19.1778125 20.73210937 -19.140625 22.04296875 C-19.09421875 23.01878906 -19.0478125 23.99460937 -19 25 C-17.35 25.33 -15.7 25.66 -14 26 C-16.75 30.875 -16.75 30.875 -19 32 C-19 37.28 -19 42.56 -19 48 C-16.69 48 -14.38 48 -12 48 C-12 47.34 -12 46.68 -12 46 C-11.34 46 -10.68 46 -10 46 C-10 45.34 -10 44.68 -10 44 C-6.535 43.505 -6.535 43.505 -3 43 C-2.855625 42.195625 -2.71125 41.39125 -2.5625 40.5625 C-2 38 -2 38 -1 37 C-0.69476038 32.34911285 -0.69476038 32.34911285 -2 28 C-5.02934491 27.34227572 -5.02934491 27.34227572 -8 27 C-7.04270084 25.87411986 -6.08412105 24.7493285 -5.125 23.625 C-4.59132812 22.99851562 -4.05765625 22.37203125 -3.5078125 21.7265625 C-2.38567993 20.44163349 -1.20628025 19.20628025 0 18 C0.24212873 16.01871492 0.24212873 16.01871492 0.125 13.875 C0.08375 12.59625 0.0425 11.3175 0 10 C-0.99 9.67 -1.98 9.34 -3 9 C-3.33 8.01 -3.66 7.02 -4 6 C-6.97 5.505 -6.97 5.505 -10 5 C-10 4.67 -10 4.34 -10 4 C-7.98177083 3.54427083 -5.96354167 3.08854167 -3.9453125 2.6328125 C-1.79280036 2.09525572 -1.79280036 2.09525572 0 0 Z " fill="#FFC8B7" transform="translate(135,79)"/>
<path d="M0 0 C3.1875 0.3125 3.1875 0.3125 5.37109375 1.94140625 C7.71886717 5.00613414 7.60325607 6.75011034 7.4375 10.5625 C7.40140625 11.64015625 7.3653125 12.7178125 7.328125 13.828125 C7.25851563 15.05789062 7.25851563 15.05789062 7.1875 16.3125 C6.1975 15.6525 5.2075 14.9925 4.1875 14.3125 C4.1875 13.6525 4.1875 12.9925 4.1875 12.3125 C2.22588102 12.49983817 2.22588102 12.49983817 0.1875 13.3125 C-2.884413 18.55079941 -3.13482069 24.4032873 -2.8125 30.3125 C1.69103262 32.06997614 5.36389811 32.50544408 10.1875 32.3125 C10.1875 29.3425 10.1875 26.3725 10.1875 23.3125 C10.8475 23.3125 11.5075 23.3125 12.1875 23.3125 C12.35185547 24.20001953 12.35185547 24.20001953 12.51953125 25.10546875 C13.51508749 30.18908108 13.51508749 30.18908108 15.75 34.8125 C17.84986691 38.46444245 17.92533547 42.16306828 18.1875 46.3125 C19.1775 46.3125 20.1675 46.3125 21.1875 46.3125 C21.1875 49.6125 21.1875 52.9125 21.1875 56.3125 C19.8675 55.6525 18.5475 54.9925 17.1875 54.3125 C16.506875 54.085625 15.82625 53.85875 15.125 53.625 C12.59821288 51.9133055 12.09791449 49.89784386 11.0234375 47.125 C9.0617907 42.87170975 6.12789987 40.68511127 1.875 39 C0.988125 38.773125 0.10125 38.54625 -0.8125 38.3125 C-0.8125 37.6525 -0.8125 36.9925 -0.8125 36.3125 C-4.58795388 37.40318668 -7.28293472 38.2208091 -9.8125 41.3125 C-11.7925 40.6525 -13.7725 39.9925 -15.8125 39.3125 C-16 37 -16 37 -15.8125 34.3125 C-15.338125 33.879375 -14.86375 33.44625 -14.375 33 C-12.46977963 30.94236201 -12.54424844 29.99153478 -12.3125 27.25 C-12.1475 25.950625 -11.9825 24.65125 -11.8125 23.3125 C-10.8225 22.6525 -9.8325 21.9925 -8.8125 21.3125 C-8.00708793 18.20438713 -8.00708793 18.20438713 -7.625 14.6875 C-7.38716797 12.90472656 -7.38716797 12.90472656 -7.14453125 11.0859375 C-6.98017578 9.71308594 -6.98017578 9.71308594 -6.8125 8.3125 C-6.1525 8.3125 -5.4925 8.3125 -4.8125 8.3125 C-4.668125 7.178125 -4.52375 6.04375 -4.375 4.875 C-3.66964286 0.4077381 -3.66964286 0.4077381 0 0 Z " fill="#FEF6D9" transform="translate(53.8125,81.6875)"/>
<path d="M0 0 C1.14009521 0.00616333 1.14009521 0.00616333 2.30322266 0.01245117 C3.13595703 0.01438477 3.96869141 0.01631836 4.82666016 0.01831055 C5.69806641 0.03055664 6.56947266 0.04280273 7.46728516 0.05541992 C8.33095703 0.05606445 9.19462891 0.05670898 10.08447266 0.05737305 C13.93861417 0.08413792 17.36562914 0.18246785 21.09228516 1.24291992 C21.09228516 1.90291992 21.09228516 2.56291992 21.09228516 3.24291992 C21.79095703 3.2197168 22.48962891 3.19651367 23.20947266 3.17260742 C24.57458984 3.14553711 24.57458984 3.14553711 25.96728516 3.11791992 C27.32466797 3.08311523 27.32466797 3.08311523 28.70947266 3.04760742 C31.09228516 3.24291992 31.09228516 3.24291992 33.09228516 5.24291992 C33.09228516 6.23291992 33.09228516 7.22291992 33.09228516 8.24291992 C35.56728516 9.23291992 35.56728516 9.23291992 38.09228516 10.24291992 C38.09228516 10.90291992 38.09228516 11.56291992 38.09228516 12.24291992 C40.56728516 12.73791992 40.56728516 12.73791992 43.09228516 13.24291992 C43.14613037 15.53433279 43.18500603 17.82610181 43.21728516 20.11791992 C43.24048828 21.3940918 43.26369141 22.67026367 43.28759766 23.98510742 C43.09228516 27.24291992 43.09228516 27.24291992 41.09228516 29.24291992 C38.92822266 29.21948242 38.92822266 29.21948242 36.46728516 28.86791992 C35.65001953 28.75706055 34.83275391 28.64620117 33.99072266 28.53198242 C33.36423828 28.4365918 32.73775391 28.34120117 32.09228516 28.24291992 C32.09228516 27.25291992 32.09228516 26.26291992 32.09228516 25.24291992 C31.32916016 25.28416992 30.56603516 25.32541992 29.77978516 25.36791992 C27.09228516 25.24291992 27.09228516 25.24291992 24.09228516 23.24291992 C24.75895182 20.57625326 25.42561849 17.90958659 26.09228516 15.24291992 C24.77228516 14.58291992 23.45228516 13.92291992 22.09228516 13.24291992 C22.42228516 12.58291992 22.75228516 11.92291992 23.09228516 11.24291992 C26.44340349 13.47699881 27.90782472 14.50507817 28.90478516 18.49291992 C28.96666016 19.40041992 29.02853516 20.30791992 29.09228516 21.24291992 C32.76639301 22.41863443 36.26157699 22.31658739 40.09228516 22.24291992 C40.68005149 19.49828553 40.68005149 19.49828553 40.09228516 16.24291992 C38.03459428 13.871344 35.60920336 12.10261577 33.09228516 10.24291992 C32.32142578 9.5597168 31.55056641 8.87651367 30.75634766 8.17260742 C22.75999309 2.38052655 9.60241232 2.06235241 0.09228516 3.24291992 C-4.15957536 4.49756729 -7.9915974 6.17773337 -11.90771484 8.24291992 C-12.57029297 8.57678711 -13.23287109 8.9106543 -13.91552734 9.25463867 C-16.94045213 10.98629851 -17.91045302 12.24939199 -19.28271484 15.49291992 C-19.59208984 16.85416992 -19.59208984 16.85416992 -19.90771484 18.24291992 C-19.24771484 18.24291992 -18.58771484 18.24291992 -17.90771484 18.24291992 C-17.69115234 19.00217773 -17.47458984 19.76143555 -17.25146484 20.54370117 C-15.52916364 24.00332365 -13.84100622 24.74539665 -10.40771484 26.43041992 C-5.04682246 29.10381231 -5.04682246 29.10381231 -2.90771484 31.24291992 C-0.48173533 31.5207966 -0.48173533 31.5207966 2.31884766 31.43823242 C3.35009766 31.43178711 4.38134766 31.4253418 5.44384766 31.41870117 C6.52408203 31.40194336 7.60431641 31.38518555 8.71728516 31.36791992 C10.34923828 31.35438477 10.34923828 31.35438477 12.01416016 31.34057617 C14.70708667 31.31695401 17.39957771 31.28401548 20.09228516 31.24291992 C19.43228516 30.25291992 18.77228516 29.26291992 18.09228516 28.24291992 C14.78983354 27.58144343 14.78983354 27.58144343 10.96728516 27.30541992 C4.88466855 26.67370494 0.32635498 25.44745247 -4.90771484 22.24291992 C-5.22021484 19.43041992 -5.22021484 19.43041992 -4.90771484 16.24291992 C-2.84521484 14.55541992 -2.84521484 14.55541992 0.09228516 13.24291992 C1.08228516 12.68604492 2.07228516 12.12916992 3.09228516 11.55541992 C8.42226009 9.27623242 14.42134524 10.01267123 20.09228516 10.24291992 C20.09228516 10.57291992 20.09228516 10.90291992 20.09228516 11.24291992 C18.84511719 11.29899414 18.84511719 11.29899414 17.57275391 11.35620117 C15.94273438 11.45481445 15.94273438 11.45481445 14.27978516 11.55541992 C13.20083984 11.61342773 12.12189453 11.67143555 11.01025391 11.73120117 C7.7925661 12.2954811 7.186968 12.90466931 5.09228516 15.24291992 C1.40478516 15.93041992 1.40478516 15.93041992 -1.90771484 16.24291992 C-1.57771484 17.89291992 -1.24771484 19.54291992 -0.90771484 21.24291992 C0.80738281 21.31639648 0.80738281 21.31639648 2.55712891 21.39135742 C4.04803989 21.46637181 5.53892407 21.54192021 7.02978516 21.61791992 C8.1619043 21.66432617 8.1619043 21.66432617 9.31689453 21.71166992 C11.2473591 21.81555142 13.17170596 22.02187606 15.09228516 22.24291992 C15.58728516 23.23291992 15.58728516 23.23291992 16.09228516 24.24291992 C17.97993419 24.92764657 17.97993419 24.92764657 20.15478516 25.36791992 C20.88826172 25.53549805 21.62173828 25.70307617 22.37744141 25.87573242 C22.94333984 25.9969043 23.50923828 26.11807617 24.09228516 26.24291992 C24.96728516 28.86791992 24.96728516 28.86791992 25.09228516 32.24291992 C23.61779869 35.02875817 21.84469502 36.72143424 19.09228516 38.24291992 C15.69518757 38.72749848 12.4971013 38.60627975 9.09228516 38.24291992 C9.09228516 37.25291992 9.09228516 36.26291992 9.09228516 35.24291992 C8.12806641 35.13334961 7.16384766 35.0237793 6.17041016 34.91088867 C4.27548828 34.67305664 4.27548828 34.67305664 2.34228516 34.43041992 C1.08931641 34.27959961 -0.16365234 34.1287793 -1.45458984 33.97338867 C-4.88288152 33.24817312 -6.30811613 32.46439519 -8.90771484 30.24291992 C-11.55706306 29.52858872 -11.55706306 29.52858872 -13.90771484 29.24291992 C-13.90771484 28.58291992 -13.90771484 27.92291992 -13.90771484 27.24291992 C-16.38271484 26.25291992 -16.38271484 26.25291992 -18.90771484 25.24291992 C-18.90771484 24.58291992 -18.90771484 23.92291992 -18.90771484 23.24291992 C-19.56771484 23.24291992 -20.22771484 23.24291992 -20.90771484 23.24291992 C-20.90771484 22.58291992 -20.90771484 21.92291992 -20.90771484 21.24291992 C-21.56771484 21.24291992 -22.22771484 21.24291992 -22.90771484 21.24291992 C-22.90771484 17.61291992 -22.90771484 13.98291992 -22.90771484 10.24291992 C-21.95896484 9.80979492 -21.01021484 9.37666992 -20.03271484 8.93041992 C-16.70729548 7.44989791 -16.70729548 7.44989791 -14.90771484 4.24291992 C-12.37646484 3.58276367 -12.37646484 3.58276367 -9.40771484 3.18041992 C-5.57075601 2.65031377 -3.33468118 0.42462347 0 0 Z " fill="#35BE68" transform="translate(79.90771484375,30.757080078125)"/>
<path d="M0 0 C1.4540625 0.0309375 1.4540625 0.0309375 2.9375 0.0625 C0.16729973 3.1405003 -2.07856693 4.86732008 -6.0625 6.0625 C-7.3825 6.0625 -8.7025 6.0625 -10.0625 6.0625 C-10.3925 21.2425 -10.7225 36.4225 -11.0625 52.0625 C-2.45876524 50.99564074 -2.45876524 50.99564074 0.9375 47.0625 C3.66257798 46.67171444 6.16871956 46.92633047 8.9375 47.0625 C8.97875 46.44375 9.02 45.825 9.0625 45.1875 C9.35125 44.48625 9.64 43.785 9.9375 43.0625 C10.824375 42.794375 11.71125 42.52625 12.625 42.25 C17.18955564 40.61364986 19.7536856 38.42262428 21.9375 34.0625 C22.72042886 29.19306442 23.35974449 24.07916975 20.4140625 19.90234375 C19.92679688 19.29519531 19.43953125 18.68804687 18.9375 18.0625 C18.75 14.8125 18.75 14.8125 18.9375 12.0625 C20.2575 11.7325 21.5775 11.4025 22.9375 11.0625 C22.710625 11.784375 22.48375 12.50625 22.25 13.25 C21.63390675 16.10799552 21.63390675 16.10799552 23.37890625 18.3125 C26.3217997 23.50497365 25.83854777 29.29710016 24.9375 35.0625 C23.16229835 38.47841833 20.90550106 40.65099914 17.9375 43.0625 C16.9475 43.90748047 16.9475 43.90748047 15.9375 44.76953125 C11.84581306 48.05406901 7.8132039 50.17192094 2.9375 52.0625 C2.6075 52.3925 2.2775 52.7225 1.9375 53.0625 C-0.0904979 53.2878331 -2.11924874 53.51017185 -4.15234375 53.68359375 C-6.2953948 53.92472227 -6.2953948 53.92472227 -8.0625 56.0625 C-11.6875 56.1875 -11.6875 56.1875 -15.0625 56.0625 C-15.11325859 49.60298014 -15.14825822 43.14351183 -15.17236328 36.68383789 C-15.18241357 34.48687823 -15.19605592 32.28993193 -15.21337891 30.09301758 C-15.23766969 26.93307192 -15.24899294 23.77330332 -15.2578125 20.61328125 C-15.26813507 19.63289383 -15.27845764 18.65250641 -15.28909302 17.64241028 C-15.29052987 8.88620885 -15.29052987 8.88620885 -13.0625 5.0625 C-10.93359375 3.734375 -10.93359375 3.734375 -8.5 2.8125 C-1.36732746 0.02790464 -1.36732746 0.02790464 0 0 Z " fill="#FFB39B" transform="translate(120.0625,81.9375)"/>
<path d="M0 0 C7.59 0 15.18 0 23 0 C26 6 26 6 26 9 C26.66 9 27.32 9 28 9 C28.1875 11.3125 28.1875 11.3125 28 14 C27.505 14.4434375 27.01 14.886875 26.5 15.34375 C24.41962149 17.64083461 24.69395734 19.14490509 24.8125 22.1875 C24.83957031 23.08855469 24.86664063 23.98960938 24.89453125 24.91796875 C24.92933594 25.60503906 24.96414062 26.29210937 25 27 C25.66 27 26.32 27 27 27 C28.29004296 29.58008592 28.20410224 31.55741574 28.25 34.4375 C28.27578125 35.40558594 28.3015625 36.37367187 28.328125 37.37109375 C27.94762183 40.4196489 27.27896519 41.06808534 25 43 C24.566875 44.2065625 24.566875 44.2065625 24.125 45.4375 C22.68571628 48.71586848 20.9557961 50.02946927 18 52 C16.66666667 52.33333333 15.33333333 52.66666667 14 53 C13.67 53.99 13.34 54.98 13 56 C10.98008215 56.94030659 8.94483618 57.51654915 6.8125 58.15625 C6.214375 58.4346875 5.61625 58.713125 5 59 C4.67 59.99 4.34 60.98 4 62 C1.68152126 62.7166207 -0.65319703 63.38242027 -3 64 C-3.99 64.99 -3.99 64.99 -5 66 C-8.22265625 66.23046875 -8.22265625 66.23046875 -12.0625 66.1875 C-13.33222656 66.18105469 -14.60195312 66.17460937 -15.91015625 66.16796875 C-19 66 -19 66 -20 65 C-20.09881593 63.28681054 -20.12798969 61.56955197 -20.12939453 59.85351562 C-20.13412277 58.20675842 -20.13412277 58.20675842 -20.13894653 56.5267334 C-20.1369223 55.33197388 -20.13489807 54.13721436 -20.1328125 52.90625 C-20.13376923 51.68925415 -20.13472595 50.4722583 -20.13571167 49.21838379 C-20.13639372 46.63924101 -20.13453772 44.06009653 -20.13037109 41.48095703 C-20.12502322 37.51721364 -20.13031529 33.55358358 -20.13671875 29.58984375 C-20.13605797 27.09114558 -20.13477682 24.59244748 -20.1328125 22.09375 C-20.13483673 20.89899048 -20.13686096 19.70423096 -20.13894653 18.4732666 C-20.13579437 17.37542847 -20.13264221 16.27759033 -20.12939453 15.14648438 C-20.12859894 14.1746521 -20.12780334 13.20281982 -20.12698364 12.20153809 C-20 10 -20 10 -19 9 C-16.32941149 8.85884839 -13.67567762 8.95752893 -11 9 C-14 11 -14 11 -17 12 C-17.96446239 14.89338718 -18.12655657 16.72375591 -18.12939453 19.73095703 C-18.13254669 20.68849884 -18.13569885 21.64604065 -18.13894653 22.63259888 C-18.1369223 23.66391937 -18.13489807 24.69523987 -18.1328125 25.7578125 C-18.13376923 26.81660614 -18.13472595 27.87539978 -18.13571167 28.96627808 C-18.13639226 31.20391906 -18.13454639 33.44156203 -18.13037109 35.67919922 C-18.12501059 39.11820873 -18.13032563 42.55708826 -18.13671875 45.99609375 C-18.13605816 48.16666696 -18.13477738 50.33724008 -18.1328125 52.5078125 C-18.13483673 53.54318146 -18.13686096 54.57855042 -18.13894653 55.64529419 C-18.13579437 56.59653168 -18.13264221 57.54776917 -18.12939453 58.52783203 C-18.12859894 59.36927765 -18.12780334 60.21072327 -18.12698364 61.07766724 C-18.21150689 63.00814686 -18.21150689 63.00814686 -17 64 C-15.65252916 64.23075082 -14.29622435 64.41153063 -12.9375 64.5625 C-11.638125 64.706875 -10.33875 64.85125 -9 65 C-8.835 64.401875 -8.67 63.80375 -8.5 63.1875 C-6.57310858 60.37745002 -4.47883626 59.89643512 -1.3359375 58.82421875 C7.22591558 55.80323046 17.76529991 50.46940019 22 42 C22.66 42 23.32 42 24 42 C25.49645363 37.51063911 26.12577617 32.3839966 24.0703125 28.03125 C23.69648438 27.4228125 23.32265625 26.814375 22.9375 26.1875 C22.298125 25.135625 21.65875 24.08375 21 23 C21.495 21.515 21.495 21.515 22 20 C22.12031873 18.0860928 22.17533219 16.16764681 22.1875 14.25 C22.20167969 13.24453125 22.21585938 12.2390625 22.23046875 11.203125 C21.96560876 7.52202004 21.11568626 4.51022238 20 1 C17.41507211 1.08716617 14.83352498 1.19405119 12.25 1.3125 C11.52039063 1.33505859 10.79078125 1.35761719 10.0390625 1.38085938 C5.69855494 1.59788475 3.25174053 2.11638104 0 5 C-2.75 5.1875 -2.75 5.1875 -5 5 C-4.01 4.67 -3.02 4.34 -2 4 C-2 3.34 -2 2.68 -2 2 C-1.34 2 -0.68 2 0 2 C0 1.34 0 0.68 0 0 Z " fill="#FF501A" transform="translate(122,75)"/>
<path d="M0 0 C2.34513026 1.25073614 3.75140469 2.28604639 4.640625 4.83984375 C4.95675137 6.20887488 5.24711022 7.58418577 5.5078125 8.96484375 C5.92685992 11.04678455 5.92685992 11.04678455 7.0078125 12.9609375 C8.12681695 15.26062381 8.41615683 17.15585592 8.75 19.6875 C9.76846038 25.84835047 11.80609321 31.50351483 13.96777344 37.33666992 C16 42.83109211 16 42.83109211 16 45 C15.01 45 14.02 45 13 45 C12.80664062 44.15695313 12.61328125 43.31390625 12.4140625 42.4453125 C12.15367188 41.34960938 11.89328125 40.25390625 11.625 39.125 C11.36976562 38.03445312 11.11453125 36.94390625 10.8515625 35.8203125 C10.21093785 32.89591545 10.21093785 32.89591545 8 31 C7.5859375 28.8359375 7.5859375 28.8359375 7.375 26.375 C7.30023438 25.55773437 7.22546875 24.74046875 7.1484375 23.8984375 C7.07496094 22.95871094 7.07496094 22.95871094 7 22 C6.34 22 5.68 22 5 22 C5 24.97 5 27.94 5 31 C-0.9180497 32.32854177 -3.77729131 31.66464729 -9 29 C-9.51137226 22.09647445 -7.86964374 17.25172386 -5 11 C-3.68 11 -2.36 11 -1 11 C-0.01 12.485 -0.01 12.485 1 14 C1.02705729 12.22925083 1.04642195 10.45838289 1.0625 8.6875 C1.07410156 7.70136719 1.08570313 6.71523437 1.09765625 5.69921875 C1.12329862 2.90036151 1.12329862 2.90036151 0 0 Z " fill="#FDEFB8" transform="translate(59,83)"/>
<path d="M0 0 C0.99 0 1.98 0 3 0 C3 0.99 3 1.98 3 3 C1.9275 3.268125 0.855 3.53625 -0.25 3.8125 C-3.69298795 4.90277952 -5.27613218 5.8033324 -8 8 C-14.91079947 11.68575972 -22.07725849 14.43880815 -29.44921875 17.03515625 C-32.82803455 18.30666233 -32.82803455 18.30666233 -36 20 C-36.495 21.485 -36.495 21.485 -37 23 C-38.98248715 23.71706982 -40.98415349 24.38290413 -43 25 C-43.66 25.66 -44.32 26.32 -45 27 C-47.3828125 27.6328125 -47.3828125 27.6328125 -50.125 28.125 C-51.03507812 28.29257813 -51.94515625 28.46015625 -52.8828125 28.6328125 C-53.58148438 28.75398438 -54.28015625 28.87515625 -55 29 C-55 29.66 -55 30.32 -55 31 C-56.74906531 31.64836042 -58.49929219 32.29358784 -60.25 32.9375 C-61.71179688 33.47697266 -61.71179688 33.47697266 -63.203125 34.02734375 C-65.46457161 34.81379655 -67.66796552 35.47251601 -70 36 C-70 35.34 -70 34.68 -70 34 C-71.27875 33.731875 -72.5575 33.46375 -73.875 33.1875 C-77.49675855 32.42809901 -77.80051868 32.29922197 -80 29 C-81.85732608 28.31775672 -81.85732608 28.31775672 -83.9375 28 C-87.1249819 27.31738137 -89.00539934 26.7425759 -91 24 C-90.34 23.67 -89.68 23.34 -89 23 C-88.01 23.66 -87.02 24.32 -86 25 C-83.13088793 25.37020801 -80.28666915 25.50463679 -77.3984375 25.65625 C-76.21121094 25.82640625 -76.21121094 25.82640625 -75 26 C-74.67 26.66 -74.34 27.32 -74 28 C-70.72444392 28.47001033 -70.72444392 28.47001033 -66.9375 28.625 C-65.64714844 28.69976562 -64.35679688 28.77453125 -63.02734375 28.8515625 C-61.52880859 28.92503906 -61.52880859 28.92503906 -60 29 C-59.64228516 28.02740234 -59.64228516 28.02740234 -59.27734375 27.03515625 C-58 25 -58 25 -55.94140625 24.49609375 C-55.15636719 24.47675781 -54.37132812 24.45742187 -53.5625 24.4375 C-50.10588762 24.40607816 -50.10588762 24.40607816 -47.3828125 22.484375 C-46.69832031 21.74960938 -46.69832031 21.74960938 -46 21 C-43.3125 20.8125 -43.3125 20.8125 -41 21 C-40.505 19.515 -40.505 19.515 -40 18 C-37 16 -37 16 -33.4375 15.5625 C-32.303125 15.376875 -31.16875 15.19125 -30 15 C-29.34 14.01 -28.68 13.02 -28 12 C-25.8359375 11.48828125 -25.8359375 11.48828125 -23.375 11.3125 C-22.55773437 11.24675781 -21.74046875 11.18101563 -20.8984375 11.11328125 C-20.27195312 11.07589844 -19.64546875 11.03851563 -19 11 C-19 10.01 -19 9.02 -19 8 C-15.78548731 6.39274365 -12.56387464 6.94251815 -9 7 C-8.814375 6.0409375 -8.814375 6.0409375 -8.625 5.0625 C-8.41875 4.381875 -8.2125 3.70125 -8 3 C-5.29120665 1.64560332 -2.99066732 1.93498549 0 2 C0 1.34 0 0.68 0 0 Z " fill="#459D43" transform="translate(157,45)"/>
<path d="M0 0 C0.69996094 0.16508057 1.39992187 0.33016113 2.12109375 0.50024414 C4.08203125 1.01953125 4.08203125 1.01953125 7.1875 2.1875 C7.6825 3.6725 7.6825 3.6725 8.1875 5.1875 C9.0125 5.5175 9.8375 5.8475 10.6875 6.1875 C11.5125 6.5175 12.3375 6.8475 13.1875 7.1875 C13.6825 8.6725 13.6825 8.6725 14.1875 10.1875 C16.18766466 11.39632096 16.18766466 11.39632096 18.1875 12.1875 C18.23004356 14.18704746 18.22830783 16.18791636 18.1875 18.1875 C17.1875 19.1875 17.1875 19.1875 13.9375 19.375 C8.06985294 19.08161765 8.06985294 19.08161765 5.1875 17.1875 C4.878125 16.053125 4.56875 14.91875 4.25 13.75 C3.51872541 10.10357621 3.51872541 10.10357621 0.875 8.25 C-9.62251865 5.22529124 -18.2642119 7.37034565 -27.8125 12.1875 C-27.4825 11.1975 -27.1525 10.2075 -26.8125 9.1875 C-25.1625 8.8575 -23.5125 8.5275 -21.8125 8.1875 C-21.4825 7.1975 -21.1525 6.2075 -20.8125 5.1875 C-18.08748092 4.27916031 -16.19016029 4.00390015 -13.36328125 3.87109375 C-12.51572266 3.82919922 -11.66816406 3.78730469 -10.79492188 3.74414062 C-9.91384766 3.70482422 -9.03277344 3.66550781 -8.125 3.625 C-6.78598633 3.56022461 -6.78598633 3.56022461 -5.41992188 3.49414062 C-3.21759892 3.38814647 -1.01516527 3.28607949 1.1875 3.1875 C-11.6910876 0.16246674 -23.8800878 -0.07701641 -35.8125 6.1875 C-36.4725 5.8575 -37.1325 5.5275 -37.8125 5.1875 C-25.17692639 -2.44649239 -14.37221326 -3.45249772 0 0 Z " fill="#77CC8D" transform="translate(102.8125,34.8125)"/>
<path d="M0 0 C0.66 0 1.32 0 2 0 C2.10957031 0.59167969 2.21914062 1.18335937 2.33203125 1.79296875 C3.32758749 6.87658108 3.32758749 6.87658108 5.5625 11.5 C7.66236691 15.15194245 7.73783547 18.85056828 8 23 C8.99 23 9.98 23 11 23 C11 26.3 11 29.6 11 33 C9.68 32.34 8.36 31.68 7 31 C6.319375 30.773125 5.63875 30.54625 4.9375 30.3125 C2.41071288 28.6008055 1.91041449 26.58534386 0.8359375 23.8125 C-1.1257093 19.55920975 -4.05960013 17.37261127 -8.3125 15.6875 C-9.199375 15.460625 -10.08625 15.23375 -11 15 C-11 14.34 -11 13.68 -11 13 C-14.77545388 14.09068668 -17.47043472 14.9083091 -20 18 C-21.98 17.34 -23.96 16.68 -26 16 C-22.25 14.875 -22.25 14.875 -20 16 C-19.855625 15.38125 -19.71125 14.7625 -19.5625 14.125 C-19 12 -19 12 -18 10 C-15.7421875 9.5859375 -15.7421875 9.5859375 -12.875 9.375 C-11.88628906 9.30152344 -10.89757812 9.22804688 -9.87890625 9.15234375 C-6.57230141 8.97736737 -3.30978891 8.92644914 0 9 C0 6.03 0 3.06 0 0 Z " fill="#FEF3CD" transform="translate(64,105)"/>
<path d="M0 0 C1.47668858 0.0133035 2.95331108 0.03716415 4.4296875 0.0703125 C5.18378906 0.07933594 5.93789062 0.08835937 6.71484375 0.09765625 C8.57826004 0.1212438 10.44151343 0.15711531 12.3046875 0.1953125 C14.5329758 4.8565875 15.67568029 8.12948197 15.4921875 13.3828125 C15.45158203 14.88908203 15.45158203 14.88908203 15.41015625 16.42578125 C15.37535156 17.33972656 15.34054688 18.25367187 15.3046875 19.1953125 C14.98545275 23.13213062 14.98545275 23.13213062 16.8046875 25.9453125 C18.75740699 30.17620473 18.75308921 32.56182819 18.3046875 37.1953125 C16.78125 39.4375 16.78125 39.4375 15.3046875 41.1953125 C15.24861328 39.76638672 15.24861328 39.76638672 15.19140625 38.30859375 C15.12566406 37.05433594 15.05992187 35.80007812 14.9921875 34.5078125 C14.93417969 33.26644531 14.87617188 32.02507812 14.81640625 30.74609375 C14.29041719 27.09629177 13.22336954 25.26412886 11.3046875 22.1953125 C11.7996875 20.7103125 11.7996875 20.7103125 12.3046875 19.1953125 C12.40050837 16.64196815 12.44408028 14.12263234 12.4296875 11.5703125 C12.43355469 10.87679687 12.43742187 10.18328125 12.44140625 9.46875 C12.73922916 6.04460829 12.73922916 6.04460829 11.3046875 3.1953125 C9.27087006 2.99565845 9.27087006 2.99565845 6.9296875 3.0078125 C6.13820312 2.99363281 5.34671875 2.97945313 4.53125 2.96484375 C2.01737417 3.05023741 2.01737417 3.05023741 -0.6953125 5.1953125 C-3.68253287 5.76977796 -6.67102258 6.14581142 -9.6875 6.53515625 C-12.89544487 7.23923766 -14.95404501 8.430067 -17.6953125 10.1953125 C-20.5078125 10.8828125 -20.5078125 10.8828125 -22.6953125 11.1953125 C-23.42706489 14.50074672 -23.83539941 17.60267648 -23.90063477 20.9855957 C-23.92057999 21.90617264 -23.94052521 22.82674957 -23.96107483 23.77522278 C-23.97778732 24.7556102 -23.99449982 25.73599762 -24.01171875 26.74609375 C-24.03249985 27.76003708 -24.05328094 28.77398041 -24.07469177 29.81864929 C-24.13992364 33.04830335 -24.19894952 36.27803671 -24.2578125 39.5078125 C-24.30102279 41.70117998 -24.34463788 43.89453953 -24.38867188 46.08789062 C-24.49557794 51.45694812 -24.59739271 56.826084 -24.6953125 62.1953125 C-19.67996198 61.86571034 -19.67996198 61.86571034 -15.6953125 59.1953125 C-13.5703125 59.5703125 -13.5703125 59.5703125 -11.6953125 60.1953125 C-12.3346875 60.4840625 -12.9740625 60.7728125 -13.6328125 61.0703125 C-15.84737329 62.02354701 -15.84737329 62.02354701 -16.6953125 64.1953125 C-22.75 64.390625 -22.75 64.390625 -24.6953125 64.1953125 C-27.16514155 61.72548345 -26.94763523 61.0237118 -26.95410156 57.62548828 C-26.96040588 56.67755402 -26.96671021 55.72961975 -26.97320557 54.75296021 C-26.9691571 53.72588959 -26.96510864 52.69881897 -26.9609375 51.640625 C-26.96285095 50.58753143 -26.9647644 49.53443787 -26.96673584 48.44943237 C-26.96809876 46.21840171 -26.96439493 43.98736315 -26.95605469 41.75634766 C-26.94537808 38.34128958 -26.95593559 34.92676014 -26.96875 31.51171875 C-26.96742801 29.346353 -26.96486479 27.18098759 -26.9609375 25.015625 C-26.96498596 23.99260284 -26.96903442 22.96958069 -26.97320557 21.91555786 C-26.96690125 20.96131927 -26.96059692 20.00708069 -26.95410156 19.02392578 C-26.95251038 18.18612579 -26.95091919 17.34832581 -26.94927979 16.48513794 C-26.66747696 13.9443411 -26.06437545 12.34643794 -24.6953125 10.1953125 C-22.3828125 9 -22.3828125 9 -19.6953125 8.0703125 C-15.82522026 6.74328737 -15.82522026 6.74328737 -12.6953125 4.1953125 C-10.36197917 3.52864583 -8.02864583 2.86197917 -5.6953125 2.1953125 C-3.6953125 0.1953125 -3.6953125 0.1953125 0 0 Z " fill="#FF774D" transform="translate(129.6953125,75.8046875)"/>
<path d="M0 0 C0.94875 0.04125 1.8975 0.0825 2.875 0.125 C2.875 2.105 2.875 4.085 2.875 6.125 C2.070625 6.269375 1.26625 6.41375 0.4375 6.5625 C-2.04603706 6.86635249 -2.04603706 6.86635249 -3.125 8.125 C-5.79558851 8.26615161 -8.44932238 8.16747107 -11.125 8.125 C-11.455 9.445 -11.785 10.765 -12.125 12.125 C-13.40375 12.2075 -14.6825 12.29 -16 12.375 C-18.17134555 12.42867785 -18.17134555 12.42867785 -20.125 13.125 C-20.43695313 13.78886719 -20.74890625 14.45273437 -21.0703125 15.13671875 C-21.59238281 16.12091797 -21.59238281 16.12091797 -22.125 17.125 C-24.4375 17.62890625 -24.4375 17.62890625 -27.125 17.6875 C-29.76033513 17.69255634 -29.76033513 17.69255634 -32.125 18.125 C-32.785 19.115 -33.445 20.105 -34.125 21.125 C-36.12071323 21.80439174 -38.12094773 22.47061559 -40.125 23.125 C-40.599375 23.640625 -41.07375 24.15625 -41.5625 24.6875 C-43.125 26.125 -43.125 26.125 -46.6875 26.625 C-48.3890625 26.8725 -48.3890625 26.8725 -50.125 27.125 C-50.785 28.115 -51.445 29.105 -52.125 30.125 C-54.2890625 30.63671875 -54.2890625 30.63671875 -56.75 30.8125 C-57.56726563 30.87824219 -58.38453125 30.94398437 -59.2265625 31.01171875 C-60.16628906 31.06779297 -60.16628906 31.06779297 -61.125 31.125 C-61.62 32.61 -61.62 32.61 -62.125 34.125 C-63.115 34.125 -64.105 34.125 -65.125 34.125 C-65.455 34.785 -65.785 35.445 -66.125 36.125 C-66.125 34.475 -66.125 32.825 -66.125 31.125 C-64.85660474 30.61884702 -63.58516898 30.12030901 -62.3125 29.625 C-61.60480469 29.3465625 -60.89710937 29.068125 -60.16796875 28.78125 C-58.125 28.125 -58.125 28.125 -55.125 28.125 C-55.125 27.465 -55.125 26.805 -55.125 26.125 C-54.43792969 25.94324219 -53.75085938 25.76148437 -53.04296875 25.57421875 C-52.14191406 25.32285156 -51.24085937 25.07148437 -50.3125 24.8125 C-49.41917969 24.56886719 -48.52585937 24.32523438 -47.60546875 24.07421875 C-45.03559876 23.09078819 -43.98680794 22.07340366 -42.125 20.125 C-39.4375 19.9375 -39.4375 19.9375 -37.125 20.125 C-37.02703125 19.49464844 -36.9290625 18.86429688 -36.828125 18.21484375 C-36.59609375 17.52519531 -36.3640625 16.83554688 -36.125 16.125 C-33.45347101 14.94336218 -30.89292382 14.02957751 -28.125 13.125 C-25.86970242 12.30611219 -23.61992724 11.47190386 -21.375 10.625 C-20.28703125 10.2228125 -19.1990625 9.820625 -18.078125 9.40625 C-15.35933871 8.22667076 -13.42229819 6.95985505 -11.125 5.125 C-9.125 4.125 -7.125 3.125 -5.125 2.125 C-3.125 0.125 -3.125 0.125 0 0 Z " fill="#DC4F0C" transform="translate(157.125,47.875)"/>
<path d="M0 0 C7.67230007 1.83557717 7.67230007 1.83557717 9.65234375 4.4921875 C10.39126055 6.57952309 10.884433 8.66922516 11.40625 10.8203125 C12.08966349 12.3111566 12.79883827 13.79041917 13.53125 15.2578125 C15.33260111 19.18803311 15.93555565 22.67093964 16.1328125 26.97265625 C16.25514227 29.0665181 16.25514227 29.0665181 18.40625 30.8203125 C19.88355922 34.66131648 19.47370825 38.77281764 19.40625 42.8203125 C14.01188282 37.42594532 12.94931692 27.4001959 11.8984375 20.09765625 C11.49470832 17.55605068 11.49470832 17.55605068 9.40625 14.8203125 C8.72840008 12.49020341 8.06208207 10.15671426 7.40625 7.8203125 C6.78155495 6.46680656 6.1346169 5.12096767 5.40625 3.8203125 C2.76625 3.8203125 0.12625 3.8203125 -2.59375 3.8203125 C-6.01005962 10.35390474 -6.01005962 10.35390474 -8.71875 17.1953125 C-9.59375 19.8203125 -9.59375 19.8203125 -11.15625 21.7578125 C-13.15220433 24.62157306 -13.15067074 27.40227249 -13.59375 30.8203125 C-14.25375 31.4803125 -14.91375 32.1403125 -15.59375 32.8203125 C-15.99422444 35.14306427 -16.3334604 37.47770607 -16.59375 39.8203125 C-17.25375 39.8203125 -17.91375 39.8203125 -18.59375 39.8203125 C-18.10047154 31.36654025 -16.52367332 24.89368074 -11.59375 17.8203125 C-10.93375 17.8203125 -10.27375 17.8203125 -9.59375 17.8203125 C-9.59375 14.5203125 -9.59375 11.2203125 -9.59375 7.8203125 C-8.27375 7.4903125 -6.95375 7.1603125 -5.59375 6.8203125 C-5.655625 6.0365625 -5.7175 5.2528125 -5.78125 4.4453125 C-5.719375 3.5790625 -5.6575 2.7128125 -5.59375 1.8203125 C-2.59375 -0.1796875 -2.59375 -0.1796875 0 0 Z " fill="#FBD953" transform="translate(53.59375,77.1796875)"/>
<path d="M0 0 C2.35661998 3.53492997 2.74846247 4.84187515 2 9 C0.31833281 10.57012804 -1.40515927 11.73039956 -3.37109375 12.921875 C-5.16517678 13.91449898 -5.16517678 13.91449898 -6 16 C-8.31 16 -10.62 16 -13 16 C-13.13504138 14.06440687 -13.23201129 12.126128 -13.3125 10.1875 C-13.37050781 9.10855469 -13.42851563 8.02960938 -13.48828125 6.91796875 C-13 4 -13 4 -10.609375 2.15625 C-6.735652 0.43974999 -4.28794341 0 0 0 Z " fill="#FF5B27" transform="translate(130,88)"/>
<path d="M0 0 C2.05078125 0.03255208 4.1015625 0.06510417 6.15234375 0.09765625 C3.15234375 2.09765625 3.15234375 2.09765625 0.15234375 3.09765625 C-0.81211864 5.99104343 -0.97421282 7.82141216 -0.97705078 10.82861328 C-0.98020294 11.78615509 -0.9833551 12.7436969 -0.98660278 13.73025513 C-0.98457855 14.76157562 -0.98255432 15.79289612 -0.98046875 16.85546875 C-0.98142548 17.91426239 -0.9823822 18.97305603 -0.98336792 20.06393433 C-0.98404851 22.30157531 -0.98220264 24.53921828 -0.97802734 26.77685547 C-0.97266684 30.21586498 -0.97798188 33.65474451 -0.984375 37.09375 C-0.98371441 39.26432321 -0.98243363 41.43489633 -0.98046875 43.60546875 C-0.98249298 44.64083771 -0.98451721 45.67620667 -0.98660278 46.74295044 C-0.98345062 47.69418793 -0.98029846 48.64542542 -0.97705078 49.62548828 C-0.97625519 50.4669339 -0.97545959 51.30837952 -0.97463989 52.17532349 C-1.05916314 54.10580311 -1.05916314 54.10580311 0.15234375 55.09765625 C1.49981459 55.32840707 2.8561194 55.50918688 4.21484375 55.66015625 C5.51421875 55.80453125 6.81359375 55.94890625 8.15234375 56.09765625 C8.31734375 55.49953125 8.48234375 54.90140625 8.65234375 54.28515625 C10.57923517 51.47510627 12.67350749 50.99409137 15.81640625 49.921875 C25.79667403 46.40040928 32.74396329 40.50603671 40.15234375 33.09765625 C40.15234375 34.41765625 40.15234375 35.73765625 40.15234375 37.09765625 C38.47265625 38.66015625 38.47265625 38.66015625 36.27734375 40.09765625 C33.13819427 42.12551542 33.13819427 42.12551542 31.1484375 45.1875 C30.15234375 47.09765625 30.15234375 47.09765625 28.2421875 48.0390625 C27.53191406 48.24402344 26.82164062 48.44898438 26.08984375 48.66015625 C23.95853436 49.2247551 23.95853436 49.2247551 22.15234375 50.09765625 C21.82234375 51.08765625 21.49234375 52.07765625 21.15234375 53.09765625 C18.83386501 53.81427695 16.49914672 54.48007652 14.15234375 55.09765625 C13.49234375 55.75765625 12.83234375 56.41765625 12.15234375 57.09765625 C8.9296875 57.328125 8.9296875 57.328125 5.08984375 57.28515625 C3.82011719 57.27871094 2.55039063 57.27226562 1.2421875 57.265625 C-1.84765625 57.09765625 -1.84765625 57.09765625 -2.84765625 56.09765625 C-2.94647218 54.38446679 -2.97564594 52.66720822 -2.97705078 50.95117188 C-2.98177902 49.30441467 -2.98177902 49.30441467 -2.98660278 47.62438965 C-2.98457855 46.42963013 -2.98255432 45.23487061 -2.98046875 44.00390625 C-2.98142548 42.7869104 -2.9823822 41.56991455 -2.98336792 40.31604004 C-2.98404997 37.73689726 -2.98219397 35.15775278 -2.97802734 32.57861328 C-2.97267947 28.61486989 -2.97797154 24.65123983 -2.984375 20.6875 C-2.98371422 18.18880183 -2.98243307 15.69010373 -2.98046875 13.19140625 C-2.98249298 11.99664673 -2.98451721 10.80188721 -2.98660278 9.57092285 C-2.98345062 8.47308472 -2.98029846 7.37524658 -2.97705078 6.24414062 C-2.97625519 5.27230835 -2.97545959 4.30047607 -2.97463989 3.29919434 C-2.81705417 0.56710254 -2.74111204 0.14487907 0 0 Z " fill="#FF5622" transform="translate(104.84765625,83.90234375)"/>
<path d="M0 0 C0.33 0 0.66 0 1 0 C1 1.98 1 3.96 1 6 C1.94875 6.309375 2.8975 6.61875 3.875 6.9375 C7 8 7 8 9 9 C12.19430683 9.36998279 15.38526008 9.71977864 18.58984375 9.98632812 C20.59375 10.20703125 20.59375 10.20703125 24 11 C25.46875 13.07421875 25.46875 13.07421875 26 15 C22.26189305 16.86905348 17.80168822 16.27116522 13.6875 16.3125 C12.73681641 16.34150391 11.78613281 16.37050781 10.80664062 16.40039062 C3.73101619 16.46466953 3.73101619 16.46466953 0.01953125 14.10546875 C-0.64691406 13.41066406 -1.31335938 12.71585938 -2 12 C-2.99 11.34 -3.98 10.68 -5 10 C-2.36 10 0.28 10 3 10 C1.0745356 7.7763932 1.0745356 7.7763932 -2 7 C-2.125 4.625 -2.125 4.625 -2 2 C-1.34 1.34 -0.68 0.68 0 0 Z " fill="#70CB89" transform="translate(74,47)"/>
<path d="M0 0 C0.61875 0.78375 1.2375 1.5675 1.875 2.375 C4.66090663 6.15640444 4.66090663 6.15640444 8.9375 7.3125 C11.98752296 7.34095862 11.98752296 7.34095862 13.38671875 5.51171875 C16.10643886 2.96321589 18.99437715 3.47436324 22.55859375 3.578125 C26.2855218 4.22213817 27.78212083 6.04282777 30 9 C30.5775 9.680625 31.155 10.36125 31.75 11.0625 C33 13 33 13 33.25 15 C34.54332837 18.44887565 37.81933834 19.38075407 41 21 C40.34908323 11.95764945 40.34908323 11.95764945 39 3 C42.11944532 5.26868751 42.83598349 8.06205884 43.66015625 11.7265625 C44.2222951 15.48707755 44.15794996 19.209201 44 23 C40.75 23.25 40.75 23.25 37 23 C34.8125 21.125 34.8125 21.125 33 19 C32.29875 18.731875 31.5975 18.46375 30.875 18.1875 C29 17 29 17 28.1875 13.625 C26.97430939 9.92157603 26.77364641 9.40223679 23.6875 7.5 C19.98558669 5.99413696 18.64341615 5.54263354 15 7 C14.34 7.66 13.68 8.32 13 9 C6.06161137 9.79620853 6.06161137 9.79620853 2 6.75 C0 4 0 4 0 0 Z " fill="#FCE37F" transform="translate(34,117)"/>
<path d="M0 0 C2.05078125 0.03255208 4.1015625 0.06510417 6.15234375 0.09765625 C6.45410288 7.94339373 6.45410288 7.94339373 4.15234375 11.09765625 C1.3671875 12.1796875 1.3671875 12.1796875 -1.91015625 12.91015625 C-3.53630859 13.29107422 -3.53630859 13.29107422 -5.1953125 13.6796875 C-6.07058594 13.81761719 -6.94585937 13.95554687 -7.84765625 14.09765625 C-8.84765625 13.09765625 -8.84765625 13.09765625 -9.28515625 9.28515625 C-9.27734375 7.10546875 -9.27734375 7.10546875 -8.84765625 5.09765625 C-5.91015625 2.66015625 -5.91015625 2.66015625 -2.84765625 1.09765625 C-1.84765625 0.09765625 -1.84765625 0.09765625 0 0 Z " fill="#FF6839" transform="translate(126.84765625,108.90234375)"/>
<path d="M0 0 C2.64 0 5.28 0 8 0 C8.33 0.99 8.66 1.98 9 3 C11.00016466 4.20882096 11.00016466 4.20882096 13 5 C13.04254356 6.99954746 13.04080783 9.00041636 13 11 C12 12 12 12 8.75 12.1875 C5.26778825 12.01338941 3.09785183 11.50198876 0 10 C0 6.7 0 3.4 0 0 Z " fill="#99D3A0" transform="translate(108,42)"/>
<path d="M0 0 C5.39603496 -0.51390809 7.66846545 0.90604675 12 4 C13.23609127 4.57269638 14.48675194 5.11499302 15.75 5.625 C19 7 19 7 21 9 C22.79257271 9.68265543 22.79257271 9.68265543 24.84375 10.18359375 C25.59527344 10.38919922 26.34679687 10.59480469 27.12109375 10.80664062 C28.70606762 11.226958 30.29201238 11.6436313 31.87890625 12.05664062 C32.63042969 12.26353516 33.38195313 12.47042969 34.15625 12.68359375 C35.18975586 12.95514282 35.18975586 12.95514282 36.24414062 13.23217773 C38 14 38 14 40 17 C42.55183404 18.20450304 42.55183404 18.20450304 45 19 C41.30261419 20.32177077 38.63059161 19.69120478 34.875 18.75 C33.82054687 18.49734375 32.76609375 18.2446875 31.6796875 17.984375 C29 17 29 17 27 14 C24.17365044 13.07078919 21.33903067 12.47848784 18.43359375 11.84375 C17.63050781 11.5653125 16.82742187 11.286875 16 11 C15.67 10.01 15.34 9.02 15 8 C14.071875 7.9175 13.14375 7.835 12.1875 7.75 C8.39156535 6.85683891 8.22907773 5.97210363 6 3 C2.89802603 2.19053578 2.89802603 2.19053578 0 2 C0 1.34 0 0.68 0 0 Z " fill="#A8C42B" transform="translate(20,48)"/>
<path d="M0 0 C0.99 0 1.98 0 3 0 C2.773125 0.721875 2.54625 1.44375 2.3125 2.1875 C1.69640675 5.04549552 1.69640675 5.04549552 3.44140625 7.25 C6.3842997 12.44247365 5.90104777 18.23460016 5 24 C3.22479835 27.41591833 0.96800106 29.58849914 -2 32 C-2.66 32.56332031 -3.32 33.12664062 -4 33.70703125 C-9.45472689 38.08572803 -15.00716319 40.94047927 -22 42 C-18.39042389 38.7089159 -15.87362847 37.45336079 -11 37 C-10.67 35.35 -10.34 33.7 -10 32 C-9.13375 31.814375 -8.2675 31.62875 -7.375 31.4375 C-2.89325463 29.52860845 -0.20203283 27.39649854 2 23 C2.78327989 18.12838117 3.41803736 13.01951851 0.48046875 8.8359375 C-0.00808594 8.23007813 -0.49664062 7.62421875 -1 7 C-1.25 3.8125 -1.25 3.8125 -1 1 C-0.67 0.67 -0.34 0.34 0 0 Z " fill="#FF9675" transform="translate(140,93)"/>
<path d="M0 0 C0.99773437 0.02320313 1.99546875 0.04640625 3.0234375 0.0703125 C4.52777344 0.09738281 4.52777344 0.09738281 6.0625 0.125 C6.83335938 0.14820313 7.60421875 0.17140625 8.3984375 0.1953125 C8.3984375 0.8553125 8.3984375 1.5153125 8.3984375 2.1953125 C7.4084375 2.5253125 6.4184375 2.8553125 5.3984375 3.1953125 C5.0684375 3.8553125 4.7384375 4.5153125 4.3984375 5.1953125 C2.5859375 5.79296875 2.5859375 5.79296875 0.3984375 6.2578125 C-2.37271127 6.71237873 -2.37271127 6.71237873 -4.6015625 8.1953125 C-4.96916981 10.52349214 -5.30397831 12.857151 -5.6015625 15.1953125 C-8.6015625 15.1953125 -8.6015625 15.1953125 -11.6015625 14.1953125 C-11.6015625 10.8953125 -11.6015625 7.5953125 -11.6015625 4.1953125 C-10.4878125 3.9065625 -9.3740625 3.6178125 -8.2265625 3.3203125 C-4.77021338 2.24765243 -3.42686724 0.25727232 0 0 Z " fill="#A0D5A4" transform="translate(76.6015625,37.8046875)"/>
<path d="M0 0 C0 0.66 0 1.32 0 2 C-0.94875 2.28875 -1.8975 2.5775 -2.875 2.875 C-6.05211578 3.76825109 -6.05211578 3.76825109 -8 6 C-10.3828125 6.6328125 -10.3828125 6.6328125 -13.125 7.125 C-14.03507812 7.29257813 -14.94515625 7.46015625 -15.8828125 7.6328125 C-16.58148438 7.75398438 -17.28015625 7.87515625 -18 8 C-18 8.66 -18 9.32 -18 10 C-19.74906531 10.64836042 -21.49929219 11.29358784 -23.25 11.9375 C-24.22453125 12.29714844 -25.1990625 12.65679687 -26.203125 13.02734375 C-28.46457161 13.81379655 -30.66796552 14.47251601 -33 15 C-33 14.34 -33 13.68 -33 13 C-34.27875 12.731875 -35.5575 12.46375 -36.875 12.1875 C-40.49675855 11.42809901 -40.80051868 11.29922197 -43 8 C-44.85732608 7.31775672 -44.85732608 7.31775672 -46.9375 7 C-50.1249819 6.31738137 -52.00539934 5.7425759 -54 3 C-53.34 2.67 -52.68 2.34 -52 2 C-51.01 2.66 -50.02 3.32 -49 4 C-46.92703621 4.5807525 -44.85052116 5.0050213 -42.7421875 5.4375 C-41.87980469 5.7159375 -41.87980469 5.7159375 -41 6 C-40.67 6.66 -40.34 7.32 -40 8 C-34.07693366 10.44648392 -28.23792194 10.42335432 -22 9 C-20.65378133 8.01741511 -19.31996402 7.01758182 -18 6 C-15.6472525 5.3673284 -13.3309174 5.00289373 -10.92578125 4.625 C-10.29027344 4.41875 -9.65476563 4.2125 -9 4 C-8.67 3.01 -8.34 2.02 -8 1 C-5.23735711 0.40267181 -2.83967231 0 0 0 Z " fill="#8D7B29" transform="translate(120,66)"/>
<path d="M0 0 C0.33 0 0.66 0 1 0 C1.33 14.85 1.66 29.7 2 45 C4.97 44.505 4.97 44.505 8 44 C7.34 44.99 6.68 45.98 6 47 C2.375 47.1875 2.375 47.1875 -1 47 C-1.02527002 40.46721214 -1.04283292 33.93443679 -1.05493164 27.40161133 C-1.05997317 25.17732268 -1.06680623 22.95303737 -1.07543945 20.72875977 C-1.08751298 17.53921691 -1.09322996 14.34971771 -1.09765625 11.16015625 C-1.10281754 10.15912369 -1.10797882 9.15809113 -1.11329651 8.12672424 C-1.11337204 7.20584518 -1.11344757 6.28496613 -1.11352539 5.33618164 C-1.115746 4.52121719 -1.11796661 3.70625275 -1.12025452 2.86659241 C-1 1 -1 1 0 0 Z " fill="#FF9C7E" transform="translate(106,91)"/>
<path d="M0 0 C2.55859375 0.40625 2.55859375 0.40625 5.55859375 2.40625 C5.87109375 5.90625 5.87109375 5.90625 5.55859375 9.40625 C4.89859375 10.06625 4.23859375 10.72625 3.55859375 11.40625 C2.91607025 13.47499034 2.91607025 13.47499034 2.55859375 15.40625 C0.78909763 15.91096197 -0.98205848 16.40985685 -2.75390625 16.90625 C-3.74003906 17.1846875 -4.72617188 17.463125 -5.7421875 17.75 C-8.44140625 18.40625 -8.44140625 18.40625 -11.44140625 18.40625 C-13.24585937 12.99289065 -13.09876689 8.1905146 -11.12890625 2.84375 C-7.45951831 -0.48429953 -4.80594598 -0.15650299 0 0 Z M-6.19140625 3.78125 C-6.60390625 4.3175 -7.01640625 4.85375 -7.44140625 5.40625 C-9.62890625 6.59375 -9.62890625 6.59375 -11.44140625 7.40625 C-11.44140625 10.04625 -11.44140625 12.68625 -11.44140625 15.40625 C-7.98509204 16.55835474 -6.80879969 16.21387372 -3.37890625 15.21875 C-2.50105469 14.97769531 -1.62320313 14.73664063 -0.71875 14.48828125 C1.66341685 13.58830008 1.66341685 13.58830008 2.859375 11.52734375 C3.86791568 8.46791587 3.68139978 5.59920687 3.55859375 2.40625 C-1.66695236 1.84820491 -1.66695236 1.84820491 -6.19140625 3.78125 Z " fill="#FF9675" transform="translate(129.44140625,106.59375)"/>
<path d="M0 0 C0.99 0.33 1.98 0.66 3 1 C3.125 8.75 3.125 8.75 2 11 C2.66 11.33 3.32 11.66 4 12 C3.375 13.875 3.375 13.875 2 16 C0.00827818 16.69100553 -1.99161804 17.35902703 -4 18 C-4.33 18.99 -4.66 19.98 -5 21 C-12.42857143 21.28571429 -12.42857143 21.28571429 -16 19 C-14.35 19 -12.7 19 -11 19 C-11 18.34 -11 17.68 -11 17 C-10.34 17 -9.68 17 -9 17 C-9 16.34 -9 15.68 -9 15 C-5.535 14.505 -5.535 14.505 -2 14 C-1.855625 13.195625 -1.71125 12.39125 -1.5625 11.5625 C-1 9 -1 9 0 8 C0.07148199 6.64756083 0.08399454 5.29165633 0.0625 3.9375 C0.041875 2.638125 0.02125 1.33875 0 0 Z " fill="#FFBFAB" transform="translate(134,108)"/>
<path d="M0 0 C0.495 0.99 0.495 0.99 1 2 C0.07662842 1.98428955 -0.84674316 1.9685791 -1.7980957 1.95239258 C-5.22539889 1.90125168 -8.65229642 1.86364465 -12.07983398 1.83520508 C-13.56297199 1.82012232 -15.04606544 1.79965311 -16.52905273 1.77368164 C-18.66140745 1.73727384 -20.79317235 1.72026927 -22.92578125 1.70703125 C-24.20880127 1.6913208 -25.49182129 1.67561035 -26.8137207 1.65942383 C-29.98778335 1.71473349 -29.98778335 1.71473349 -31.94213867 3.51831055 C-32.29123291 4.00726807 -32.64032715 4.49622559 -33 5 C-33.99 4.67 -34.98 4.34 -36 4 C-27.48337633 -4.51662367 -10.73185922 -3.57728641 0 0 Z " fill="#90D19B" transform="translate(104,37)"/>
<path d="M0 0 C0.33 0.66 0.66 1.32 1 2 C0.01 3.485 0.01 3.485 -1 5 C-1.71039886 7.3324659 -1.71039886 7.3324659 -2.1875 9.875 C-2.36667969 10.71804687 -2.54585937 11.56109375 -2.73046875 12.4296875 C-3.09661989 15.92138964 -2.72240009 18.76767044 -0.9375 21.8125 C2.18462856 23.72606267 5.44115121 23.59064927 9 23 C10.73026102 21.52109931 10.73026102 21.52109931 12 20 C14.1875 20.3125 14.1875 20.3125 16 21 C15.01 21 14.02 21 13 21 C12.855625 21.639375 12.71125 22.27875 12.5625 22.9375 C12 25 12 25 11 26 C9.14712498 26.07226502 7.29166122 26.0838122 5.4375 26.0625 C4.42558594 26.05347656 3.41367187 26.04445312 2.37109375 26.03515625 C1.19740234 26.01775391 1.19740234 26.01775391 0 26 C0 25.34 0 24.68 0 24 C-0.66 24 -1.32 24 -2 24 C-3.02104551 23.02149805 -4.0206121 22.02019573 -5 21 C-5.66 20.67 -6.32 20.34 -7 20 C-7 18.35 -7 16.7 -7 15 C-6.01 14.67 -5.02 14.34 -4 14 C-4.04640625 13.32453125 -4.0928125 12.6490625 -4.140625 11.953125 C-4.43910806 4.57632933 -4.43910806 4.57632933 -2 1.375 C-1.34 0.92125 -0.68 0.4675 0 0 Z " fill="#FAD232" transform="translate(38,102)"/>
<path d="M0 0 C0 0.33 0 0.66 0 1 C-1.24716797 1.05607422 -1.24716797 1.05607422 -2.51953125 1.11328125 C-3.60621094 1.17902344 -4.69289063 1.24476562 -5.8125 1.3125 C-7.43091797 1.39951172 -7.43091797 1.39951172 -9.08203125 1.48828125 C-12.29971906 2.05256117 -12.90531716 2.66174938 -15 5 C-18.6875 5.6875 -18.6875 5.6875 -22 6 C-21.81171228 8.44480079 -21.81171228 8.44480079 -21 11 C-17.26111216 13.45867908 -13.49156276 13.40166543 -9.14453125 13.65625 C-8.43683594 13.7696875 -7.72914062 13.883125 -7 14 C-6.67 14.66 -6.34 15.32 -6 16 C-13.57771707 16.50146657 -18.45783241 15.94998798 -25 12 C-25.3125 9.1875 -25.3125 9.1875 -25 6 C-22.9375 4.3125 -22.9375 4.3125 -20 3 C-19.01 2.443125 -18.02 1.88625 -17 1.3125 C-11.67002506 -0.9666875 -5.67093991 -0.23024869 0 0 Z " fill="#46C272" transform="translate(100,41)"/>
<path d="M0 0 C0.69996094 0.16508057 1.39992187 0.33016113 2.12109375 0.50024414 C4.08203125 1.01953125 4.08203125 1.01953125 7.1875 2.1875 C7.6825 3.6725 7.6825 3.6725 8.1875 5.1875 C7.1975 5.1875 6.2075 5.1875 5.1875 5.1875 C5.1875 4.5275 5.1875 3.8675 5.1875 3.1875 C-9.16493266 0.84082488 -22.54185391 -0.77958919 -35.8125 6.1875 C-36.4725 5.8575 -37.1325 5.5275 -37.8125 5.1875 C-25.17692639 -2.44649239 -14.37221326 -3.45249772 0 0 Z " fill="#69C985" transform="translate(102.8125,34.8125)"/>
<path d="M0 0 C2.29013653 3.4352048 2.17842973 4.985331 2 9 C1.34 9 0.68 9 0 9 C-0.33 7.02 -0.66 5.04 -1 3 C-3.91634129 2.7497843 -3.91634129 2.7497843 -7 3 C-7.99 4.485 -7.99 4.485 -9 6 C-9.66 6 -10.32 6 -11 6 C-11 8.31 -11 10.62 -11 13 C-8.36 12.34 -5.72 11.68 -3 11 C-4.0625 13.5 -4.0625 13.5 -6 16 C-9.6875 16.3125 -9.6875 16.3125 -13 16 C-13.13504138 14.06440687 -13.23201129 12.126128 -13.3125 10.1875 C-13.37050781 9.10855469 -13.42851563 8.02960938 -13.48828125 6.91796875 C-13 4 -13 4 -10.609375 2.15625 C-6.735652 0.43974999 -4.28794341 0 0 0 Z " fill="#FF825B" transform="translate(130,88)"/>
<path d="M0 0 C0.94875 0.04125 1.8975 0.0825 2.875 0.125 C2.875 1.115 2.875 2.105 2.875 3.125 C1.92625 3.41375 0.9775 3.7025 0 4 C-3.17711578 4.89325109 -3.17711578 4.89325109 -5.125 7.125 C-6.8265625 7.3415625 -6.8265625 7.3415625 -8.5625 7.5625 C-12.46526523 8.17872609 -12.57740959 8.5319169 -15.125 11.125 C-17.03515625 11.96875 -17.03515625 11.96875 -19.1875 12.625 C-20.36892578 12.99044922 -20.36892578 12.99044922 -21.57421875 13.36328125 C-22.83685547 13.74033203 -22.83685547 13.74033203 -24.125 14.125 C-25.46498047 14.54845703 -25.46498047 14.54845703 -26.83203125 14.98046875 C-33.70862676 17.125 -33.70862676 17.125 -37.125 17.125 C-32.18096754 13.82242563 -26.87367595 12.21081688 -21.27539062 10.375 C-17.37458518 9.05525613 -14.31100474 7.81855436 -11.125 5.125 C-9.125 4.125 -7.125 3.125 -5.125 2.125 C-3.125 0.125 -3.125 0.125 0 0 Z " fill="#997124" transform="translate(157.125,47.875)"/>
<path d="M0 0 C0.61875 0.78375 1.2375 1.5675 1.875 2.375 C4.66090663 6.15640444 4.66090663 6.15640444 8.9375 7.3125 C11.98954259 7.34230864 11.98954259 7.34230864 13.3828125 5.50390625 C15.58298473 3.45785236 16.9754926 3.59827512 19.9375 3.625 C21.21947266 3.61339844 21.21947266 3.61339844 22.52734375 3.6015625 C25.49553569 4.07984935 26.84437456 4.9258093 29 7 C30.1875 10.4375 30.1875 10.4375 31 14 C31.20625 14.804375 31.4125 15.60875 31.625 16.4375 C31.74875 16.953125 31.8725 17.46875 32 18 C31.01 17.67 30.02 17.34 29 17 C28.7525 15.906875 28.505 14.81375 28.25 13.6875 C26.98699042 9.96162174 26.79573798 9.41327824 23.6875 7.5 C19.98558669 5.99413696 18.64341615 5.54263354 15 7 C14.34 7.66 13.68 8.32 13 9 C6.06161137 9.79620853 6.06161137 9.79620853 2 6.75 C0 4 0 4 0 0 Z " fill="#FBDC62" transform="translate(34,117)"/>
<path d="M0 0 C1.65 0 3.3 0 5 0 C4.01 0.495 4.01 0.495 3 1 C2.773125 1.639375 2.54625 2.27875 2.3125 2.9375 C0.67232398 5.51491946 -0.93846428 6.06102508 -3.86328125 6.75390625 C-9.51774817 7.40515198 -15.01682715 6.79515902 -20 4 C-20 3.34 -20 2.68 -20 2 C-20.66 1.67 -21.32 1.34 -22 1 C-20.35 1 -18.7 1 -17 1 C-16.67 1.66 -16.34 2.32 -16 3 C-12.72444392 3.47001033 -12.72444392 3.47001033 -8.9375 3.625 C-7.00197266 3.73714844 -7.00197266 3.73714844 -5.02734375 3.8515625 C-3.52880859 3.92503906 -3.52880859 3.92503906 -2 4 C-1.34 2.68 -0.68 1.36 0 0 Z " fill="#3FA846" transform="translate(99,70)"/>
<path d="M0 0 C2.375 1.0625 2.375 1.0625 5 3 C5.66666667 5.33333333 6.33333333 7.66666667 7 10 C9.40858714 11.8624438 9.40858714 11.8624438 12 13 C12.66 13.66 13.32 14.32 14 15 C16.32275177 15.40047444 18.65739357 15.7397104 21 16 C21 14.02 21 12.04 21 10 C23 11.3125 23 11.3125 25 13 C25 13.99 25 14.98 25 16 C21.91154332 17.8291543 19.98729251 18.2064877 16.4375 17.75 C15.67308594 17.66234375 14.90867187 17.5746875 14.12109375 17.484375 C12 17 12 17 9 15 C9 14.34 9 13.68 9 13 C8.360625 12.87625 7.72125 12.7525 7.0625 12.625 C6.381875 12.41875 5.70125 12.2125 5 12 C3.64560332 9.29120665 3.93498549 6.99066732 4 4 C2.68 3.67 1.36 3.34 0 3 C0 2.01 0 1.02 0 0 Z " fill="#FAD233" transform="translate(57,124)"/>
<path d="M0 0 C0.33 1.32 0.66 2.64 1 4 C0.44570312 4.38671875 -0.10859375 4.7734375 -0.6796875 5.171875 C-1.76636719 5.95304687 -1.76636719 5.95304687 -2.875 6.75 C-3.59429687 7.26046875 -4.31359375 7.7709375 -5.0546875 8.296875 C-7.10631337 9.866864 -7.10631337 9.866864 -8.00390625 12.1015625 C-9 14 -9 14 -10.91015625 14.9765625 C-11.62042969 15.19054687 -12.33070313 15.40453125 -13.0625 15.625 C-15.17790028 16.24292527 -15.17790028 16.24292527 -17 17 C-17.33 17.66 -17.66 18.32 -18 19 C-20.1796875 19.6328125 -20.1796875 19.6328125 -22.875 20.125 C-23.75929688 20.29257813 -24.64359375 20.46015625 -25.5546875 20.6328125 C-28 21 -28 21 -31 21 C-27.74057186 18.9512166 -24.5759422 17.40369074 -21 16 C-13.28439453 12.77111637 -3.89224435 7.78448871 0 0 Z " fill="#FF6534" transform="translate(144,117)"/>
<path d="M0 0 C0.763125 0.061875 1.52625 0.12375 2.3125 0.1875 C2.3125 1.1775 2.3125 2.1675 2.3125 3.1875 C1.508125 3.331875 0.70375 3.47625 -0.125 3.625 C-2.60853706 3.92885249 -2.60853706 3.92885249 -3.6875 5.1875 C-6.35808851 5.32865161 -9.01182238 5.22997107 -11.6875 5.1875 C-12.0175 6.5075 -12.3475 7.8275 -12.6875 9.1875 C-13.96625 9.27 -15.245 9.3525 -16.5625 9.4375 C-18.74083418 9.64619931 -18.74083418 9.64619931 -20.6875 10.1875 C-22.2774433 12.10814793 -22.2774433 12.10814793 -22.6875 14.1875 C-25.3275 14.1875 -27.9675 14.1875 -30.6875 14.1875 C-30.6875 13.8575 -30.6875 13.5275 -30.6875 13.1875 C-29.594375 12.919375 -28.50125 12.65125 -27.375 12.375 C-23.78391705 11.21854956 -23.10897743 10.71425906 -20.6875 8.1875 C-18.69577818 7.49649447 -16.69588196 6.82847297 -14.6875 6.1875 C-14.0275 5.5275 -13.3675 4.8675 -12.6875 4.1875 C-11.553125 4.043125 -10.41875 3.89875 -9.25 3.75 C-5.0078781 3.08019128 -4.01831378 0.28034747 0 0 Z " fill="#E54908" transform="translate(157.6875,50.8125)"/>
<path d="M0 0 C7.59 0 15.18 0 23 0 C24.38226016 2.76452033 24.09525387 5.0461363 24.0625 8.125 C24.05347656 9.22070312 24.04445312 10.31640625 24.03515625 11.4453125 C24.02355469 12.28835937 24.01195312 13.13140625 24 14 C23.67 14 23.34 14 23 14 C22.80083984 12.96939453 22.80083984 12.96939453 22.59765625 11.91796875 C22.42105469 11.01691406 22.24445313 10.11585937 22.0625 9.1875 C21.88847656 8.29417969 21.71445313 7.40085937 21.53515625 6.48046875 C21.02258847 3.88602829 21.02258847 3.88602829 20 1 C17.41507211 1.08716617 14.83352498 1.19405119 12.25 1.3125 C11.52039063 1.33505859 10.79078125 1.35761719 10.0390625 1.38085938 C5.69855494 1.59788475 3.25174053 2.11638104 0 5 C-2.75 5.1875 -2.75 5.1875 -5 5 C-4.01 4.67 -3.02 4.34 -2 4 C-2 3.34 -2 2.68 -2 2 C-1.34 2 -0.68 2 0 2 C0 1.34 0 0.68 0 0 Z " fill="#FF602E" transform="translate(122,75)"/>
<path d="M0 0 C1.33333333 0.66666667 2.66666667 1.33333333 4 2 C5.03125 2.495 6.0625 2.99 7.125 3.5 C10 5 10 5 12 7 C14.42597951 7.27787668 14.42597951 7.27787668 17.2265625 7.1953125 C18.2578125 7.18886719 19.2890625 7.18242188 20.3515625 7.17578125 C21.43179688 7.15902344 22.51203125 7.14226563 23.625 7.125 C24.71296875 7.11597656 25.8009375 7.10695313 26.921875 7.09765625 C29.61480152 7.07403409 32.30729255 7.04109556 35 7 C34.34 5.68 33.68 4.36 33 3 C34.32 3.66 35.64 4.32 37 5 C36.67 6.32 36.34 7.64 36 9 C31.87598194 9.23498678 27.75370811 9.37529253 23.625 9.5 C22.46871094 9.56703125 21.31242187 9.6340625 20.12109375 9.703125 C11.9794641 9.88711663 7.77061264 8.29896373 1.70849609 2.83007812 C0 1 0 1 0 0 Z " fill="#44C170" transform="translate(65,55)"/>
<path d="M0 0 C0.66 0 1.32 0 2 0 C2.33 0.99 2.66 1.98 3 3 C6.00847418 4.22520264 6.00847418 4.22520264 9 5 C9.556875 4.34 10.11375 3.68 10.6875 3 C13 1 13 1 15.75 0.75 C16.4925 0.8325 17.235 0.915 18 1 C18 1.66 18 2.32 18 3 C18.66 3.33 19.32 3.66 20 4 C18.88625 4.28875 17.7725 4.5775 16.625 4.875 C12.99708908 5.69241329 12.99708908 5.69241329 11 8 C8.1875 8.4375 8.1875 8.4375 5 8 C2.125 5.6875 2.125 5.6875 0 3 C0 2.01 0 1.02 0 0 Z " fill="#FDE58B" transform="translate(35,117)"/>
<path d="M0 0 C0.99 0.33 1.98 0.66 3 1 C4.1577506 4.47325181 4.06866652 7.36067448 4 11 C2.34385343 11.38218767 0.67542976 11.71395102 -1 12 C-1.33 11.67 -1.66 11.34 -2 11 C-1.9140625 9.00390625 -1.9140625 9.00390625 -1.625 6.5625 C-1.53476562 5.75941406 -1.44453125 4.95632812 -1.3515625 4.12890625 C-1 2 -1 2 0 0 Z " fill="#FBDC62" transform="translate(55,100)"/>
<path d="M0 0 C0.66 0.28875 1.32 0.5775 2 0.875 C4.45222651 1.79458494 6.71002298 2.4243937 9.25 3 C10.4875 3.33 11.725 3.66 13 4 C13.33 4.66 13.66 5.32 14 6 C16.34386809 6.91031272 16.34386809 6.91031272 19.0625 7.625 C19.98160156 7.88539062 20.90070313 8.14578125 21.84765625 8.4140625 C22.55792969 8.60742188 23.26820312 8.80078125 24 9 C23.67 10.32 23.34 11.64 23 13 C22.34 13 21.68 13 21 13 C21 12.34 21 11.68 21 11 C19.72125 10.731875 18.4425 10.46375 17.125 10.1875 C13.50324145 9.42809901 13.19948132 9.29922197 11 6 C9.14267392 5.31775672 9.14267392 5.31775672 7.0625 5 C3.89223976 4.31531585 1.93439881 3.78069829 0 1 C0 0.67 0 0.34 0 0 Z " fill="#8AC233" transform="translate(66,68)"/>
<path d="M0 0 C0.33 1.32 0.66 2.64 1 4 C1.99 4 2.98 4 4 4 C4.5501264 7.74085952 4.01848345 8.97227483 1.875 12.1875 C-0.70486311 15.06304943 -3.21472897 16.11970441 -7 17 C-2.375 12.125 -2.375 12.125 1 11 C0.34 8.03 -0.32 5.06 -1 2 C-3.64 2.33 -6.28 2.66 -9 3 C-5.92807025 0.26939578 -4.09590633 -0.34132553 0 0 Z " fill="#FFA588" transform="translate(131,86)"/>
<path d="M0 0 C0.66 0 1.32 0 2 0 C2.32523926 3.57763189 2.42956587 5.39542581 0.3125 8.375 C-2.38790237 10.27258004 -3.77060081 10.35882213 -7 10 C-7 8.35 -7 6.7 -7 5 C-6.030625 4.54625 -5.06125 4.0925 -4.0625 3.625 C-0.92920418 2.34213779 -0.92920418 2.34213779 0 0 Z " fill="#FF470D" transform="translate(127,110)"/>
<path d="M0 0 C0.82638376 2.89234315 1 4.88742431 1 8 C1.7425 9.36125 1.7425 9.36125 2.5 10.75 C4.45271949 14.98089223 4.44840171 17.36651569 4 22 C2.4765625 24.2421875 2.4765625 24.2421875 1 26 C0.96261719 25.04738281 0.92523438 24.09476563 0.88671875 23.11328125 C0.82097656 21.85902344 0.75523437 20.60476562 0.6875 19.3125 C0.62949219 18.07113281 0.57148438 16.82976562 0.51171875 15.55078125 C-0.01376221 11.90450499 -1.05344754 10.05193543 -3 7 C-2.25 4.3125 -2.25 4.3125 -1 2 C-0.67 1.34 -0.34 0.68 0 0 Z " fill="#FF6F42" transform="translate(144,91)"/>
<path d="M0 0 C3.06916707 3.06916707 3.07337066 5.92504029 3.1875 10.125 C3 14 3 14 1 16 C0.93941406 15.07316406 0.87882812 14.14632812 0.81640625 13.19140625 C0.69072266 11.39509766 0.69072266 11.39509766 0.5625 9.5625 C0.48128906 8.36753906 0.40007812 7.17257813 0.31640625 5.94140625 C0.32343886 3.11429756 0.32343886 3.11429756 -1 2 C-3.03381744 1.80034595 -3.03381744 1.80034595 -5.375 1.8125 C-6.56222656 1.79123047 -6.56222656 1.79123047 -7.7734375 1.76953125 C-10.28731333 1.85492491 -10.28731333 1.85492491 -13 4 C-15.26171875 4.4140625 -15.26171875 4.4140625 -17.6875 4.625 C-18.49574219 4.69976562 -19.30398437 4.77453125 -20.13671875 4.8515625 C-21.05904297 4.92503906 -21.05904297 4.92503906 -22 5 C-15.07459893 0.38306595 -8.25175127 -1.06967146 0 0 Z " fill="#FF8D69" transform="translate(142,77)"/>
<path d="M0 0 C2.9375 1.625 2.9375 1.625 6 4 C6.875 7.25 6.875 7.25 7 10 C10.67410785 11.17571451 14.16929183 11.07366746 18 11 C18.33 9.02 18.66 7.04 19 5 C19.33 5 19.66 5 20 5 C20.125 8.375 20.125 8.375 20 12 C18 14 18 14 14.75 14.25 C11.1318718 14.00879145 8.36104678 13.31162801 5 12 C4.87625 10.3603125 4.87625 10.3603125 4.75 8.6875 C4.37989701 4.96556057 4.37989701 4.96556057 1.9375 3.1875 C1.298125 2.795625 0.65875 2.40375 0 2 C0 1.34 0 0.68 0 0 Z " fill="#59C67D" transform="translate(102,42)"/>
<path d="M0 0 C0.66 0.33 1.32 0.66 2 1 C1.67 1.33 1.34 1.66 1 2 C0.92755947 4.01964199 0.91622812 6.04167124 0.9375 8.0625 C0.95103516 9.71958984 0.95103516 9.71958984 0.96484375 11.41015625 C0.97644531 12.26480469 0.98804687 13.11945313 1 14 C3.31 13.34 5.62 12.68 8 12 C8 12.66 8 13.32 8 14 C7.34 14 6.68 14 6 14 C6 14.66 6 15.32 6 16 C3.69 16 1.38 16 -1 16 C-2.36271133 13.27457733 -2.16923601 11.03912726 -2.1875 8 C-2.20167969 6.9275 -2.21585937 5.855 -2.23046875 4.75 C-2 2 -2 2 0 0 Z " fill="#FFAD93" transform="translate(117,111)"/>
<path d="M0 0 C0.66 0.33 1.32 0.66 2 1 C2 1.66 2 2.32 2 3 C3.32 3.66 4.64 4.32 6 5 C6.04254356 6.99954746 6.04080783 9.00041636 6 11 C5 12 5 12 1.75 12.1875 C-1.73221175 12.01338941 -3.90214817 11.50198876 -7 10 C-7 8.02 -7 6.04 -7 4 C-5 7 -5 7 -5 10 C-2.03 10 0.94 10 4 10 C4 8.35 4 6.7 4 5 C2.68 4.67 1.36 4.34 0 4 C0 2.68 0 1.36 0 0 Z " fill="#7DCD90" transform="translate(115,42)"/>
<path d="M0 0 C1.32 0.33 2.64 0.66 4 1 C4 2.98 4 4.96 4 7 C2.68 5.68 1.36 4.36 0 3 C-0.33 6.63 -0.66 10.26 -1 14 C0.32 14 1.64 14 3 14 C3.33 12.02 3.66 10.04 4 8 C4.33 8 4.66 8 5 8 C5 10.64 5 13.28 5 16 C2.66705225 16.04241723 0.33297433 16.04092937 -2 16 C-3 15 -3 15 -3.25 11.375 C-3.21809755 6.95651081 -1.96214245 3.9242849 0 0 Z " fill="#FCE690" transform="translate(55,97)"/>
<path d="M0 0 C2.31 0.33 4.62 0.66 7 1 C7.33 1.99 7.66 2.98 8 4 C8.69867188 4.09796875 9.39734375 4.1959375 10.1171875 4.296875 C11.02726562 4.44640625 11.93734375 4.5959375 12.875 4.75 C13.77992187 4.88921875 14.68484375 5.0284375 15.6171875 5.171875 C18 6 18 6 19.1953125 8.015625 C19.46085937 8.67046875 19.72640625 9.3253125 20 10 C20.66 10.33 21.32 10.66 22 11 C19.03 10.505 19.03 10.505 16 10 C16 9.01 16 8.02 16 7 C13.98177083 7.09765625 11.96354167 7.1953125 9.9453125 7.29296875 C9.30335937 7.19628906 8.66140625 7.09960938 8 7 C7.34 6.01 6.68 5.02 6 4 C4.03247172 2.93753473 2.03412421 1.92862192 0 1 C0 0.67 0 0.34 0 0 Z " fill="#D0C81F" transform="translate(59,67)"/>
<path d="M0 0 C1.33804688 0.17982422 1.33804688 0.17982422 2.703125 0.36328125 C3.37859375 0.47027344 4.0540625 0.57726562 4.75 0.6875 C4.75 1.6775 4.75 2.6675 4.75 3.6875 C4.0075 3.64625 3.265 3.605 2.5 3.5625 C-0.22841527 3.49494481 -0.22841527 3.49494481 -2.3125 4.75 C-4.25 5.6875 -4.25 5.6875 -6.4375 5.4375 C-8.25 4.6875 -8.25 4.6875 -9.25 2.6875 C-6.03037108 -0.23875152 -4.27288159 -0.61844339 0 0 Z " fill="#FFC0AC" transform="translate(126.25,83.3125)"/>
<path d="M0 0 C0.33 0 0.66 0 1 0 C1.19335938 0.59167969 1.38671875 1.18335937 1.5859375 1.79296875 C1.84632812 2.58316406 2.10671875 3.37335938 2.375 4.1875 C2.78298828 5.42886719 2.78298828 5.42886719 3.19921875 6.6953125 C3.98351643 9.07568891 3.98351643 9.07568891 5.1875 11.5625 C6.3688044 15.10641319 6.12628193 18.27468304 6 22 C1.96172116 17.96172116 0.30360616 11.0268614 -0.2578125 5.4296875 C-0.25131815 3.61776421 -0.13896907 1.80659785 0 0 Z " fill="#FBDD66" transform="translate(67,98)"/>
<path d="M0 0 C2.08326131 -0.02709444 4.16662441 -0.04643873 6.25 -0.0625 C7.41015625 -0.07410156 8.5703125 -0.08570313 9.765625 -0.09765625 C12.40977128 -0.01782092 14.49826091 0.21356222 17 1 C17 1.66 17 2.32 17 3 C11.72 3 6.44 3 1 3 C0.67 2.01 0.34 1.02 0 0 Z " fill="#90D19B" transform="translate(81,59)"/>
<path d="M0 0 C1.4540625 0.0309375 1.4540625 0.0309375 2.9375 0.0625 C2.29296875 0.42988281 1.6484375 0.79726562 0.984375 1.17578125 C-1.81804635 3.75892918 -1.65143007 5.50512411 -1.8125 9.25 C-1.86921875 10.33667969 -1.9259375 11.42335938 -1.984375 12.54296875 C-2.01015625 13.37441406 -2.0359375 14.20585938 -2.0625 15.0625 C0.2475 15.0625 2.5575 15.0625 4.9375 15.0625 C4.9375 15.3925 4.9375 15.7225 4.9375 16.0625 C-1.21484375 16.16015625 -1.21484375 16.16015625 -3.0625 16.0625 C-4.0625 15.0625 -4.0625 15.0625 -4.1953125 11.9375 C-4.19273438 10.65875 -4.19015625 9.38 -4.1875 8.0625 C-4.19007812 6.78375 -4.19265625 5.505 -4.1953125 4.1875 C-4.02083121 0.08205778 -4.02083121 0.08205778 0 0 Z " fill="#FFB097" transform="translate(119.0625,88.9375)"/>
<path d="M0 0 C1.65 0 3.3 0 5 0 C5.33 0.66 5.66 1.32 6 2 C8.02600175 2.22511131 10.05459276 2.4440878 12.08984375 2.55859375 C14 3 14 3 16 6 C16.99 6.66 17.98 7.32 19 8 C13.30624815 8.56937519 9.79265949 6.73585079 5 4 C4.01 3.443125 3.02 2.88625 2 2.3125 C1.34 1.879375 0.68 1.44625 0 1 C0 0.67 0 0.34 0 0 Z " fill="#4DBC45" transform="translate(58,63)"/>
<path d="M0 0 C3.25571411 4.88357117 4.33033481 7.05397338 4 13 C3.67 13.33 3.34 13.66 3 14 C1.47480724 13.91062197 -0.04681929 13.75462854 -1.5625 13.5625 C-2.38878906 13.46066406 -3.21507812 13.35882813 -4.06640625 13.25390625 C-4.70449219 13.17011719 -5.34257813 13.08632812 -6 13 C-6 12.67 -6 12.34 -6 12 C-3.69 12 -1.38 12 1 12 C0.67 8.04 0.34 4.08 0 0 Z " fill="#FDEEB4" transform="translate(59,101)"/>
<path d="M0 0 C2.3125 0.5 2.3125 0.5 5 2 C6.36599233 4.55406129 7.14609927 7.24083328 8 10 C8.391875 10.86625 8.78375 11.7325 9.1875 12.625 C10.174123 15.50897492 10.14076409 17.97357207 10 21 C9.67 21 9.34 21 9 21 C9 19.35 9 17.7 9 16 C8.34 16 7.68 16 7 16 C4.71478227 11.74118513 3.3127818 7.63849571 2 3 C1.34 2.01 0.68 1.02 0 0 Z " fill="#FBD956" transform="translate(59,82)"/>
<path d="M0 0 C2.69082872 0.17635452 5.32851446 0.61835921 8 1 C8 1.66 8 2.32 8 3 C5.36 3 2.72 3 0 3 C-0.66 5.31 -1.32 7.62 -2 10 C-2.66 10 -3.32 10 -4 10 C-4.33 11.65 -4.66 13.3 -5 15 C-6.04537095 12.29840881 -6.08156212 11.21584123 -5.0390625 8.45703125 C-4.57242188 7.58433594 -4.10578125 6.71164063 -3.625 5.8125 C-3.16351563 4.93207031 -2.70203125 4.05164063 -2.2265625 3.14453125 C-1 1 -1 1 0 0 Z " fill="#FCE68E" transform="translate(51,80)"/>
<path d="M0 0 C1.24394531 -0.04898438 2.48789063 -0.09796875 3.76953125 -0.1484375 C7.1875 0.375 7.1875 0.375 9.63671875 2.8984375 C10.14847656 3.71570312 10.66023438 4.53296875 11.1875 5.375 C9.8675 5.375 8.5475 5.375 7.1875 5.375 C6.5275 4.385 5.8675 3.395 5.1875 2.375 C2.8587213 1.89675649 2.8587213 1.89675649 0.25 2 C-0.62527344 1.99226563 -1.50054687 1.98453125 -2.40234375 1.9765625 C-5.24649243 2.44674591 -5.92423515 3.2957257 -7.8125 5.375 C-10.5 5.5625 -10.5 5.5625 -12.8125 5.375 C-12.008125 4.735625 -11.20375 4.09625 -10.375 3.4375 C-6.42951069 0.26186226 -5.28560481 0.1415301 0 0 Z " fill="#28BC61" transform="translate(94.8125,41.625)"/>
<path d="M0 0 C0.66 0 1.32 0 2 0 C2.02578125 0.77085938 2.0515625 1.54171875 2.078125 2.3359375 C2.13484375 3.33882812 2.1915625 4.34171875 2.25 5.375 C2.29640625 6.37273438 2.3428125 7.37046875 2.390625 8.3984375 C2.72160885 11.1526477 2.72160885 11.1526477 5.046875 12.3515625 C5.69140625 12.56554688 6.3359375 12.77953125 7 13 C6.67 13.66 6.34 14.32 6 15 C3 13.25 3 13.25 0 11 C0 9.68 0 8.36 0 7 C-0.66 7 -1.32 7 -2 7 C-1.125 1.125 -1.125 1.125 0 0 Z " fill="#72CB8A" transform="translate(62,42)"/>
<path d="M0 0 C3.11944532 2.26868751 3.83598349 5.06205884 4.66015625 8.7265625 C5.2222951 12.48707755 5.15794996 16.209201 5 20 C2.69 20 0.38 20 -2 20 C-2 19.67 -2 19.34 -2 19 C-0.35 18.67 1.3 18.34 3 18 C2.58216177 12.95295406 2.00953788 8.68892172 0 4 C0 2.68 0 1.36 0 0 Z " fill="#FBDB5D" transform="translate(73,120)"/>
<path d="M0 0 C6.75 0.75 6.75 0.75 9 3 C11.42715206 3.67940467 11.42715206 3.67940467 14.125 4.125 C15.49011719 4.37636719 15.49011719 4.37636719 16.8828125 4.6328125 C17.58148438 4.75398438 18.28015625 4.87515625 19 5 C18.67 6.32 18.34 7.64 18 9 C11.51571405 6.51960324 5.78514247 3.85676165 0 0 Z " fill="#46BC47" transform="translate(32,52)"/>
<path d="M0 0 C5.5 -0.36666667 5.5 -0.36666667 7.875 1.375 C9 3 9 3 9 5 C10.98 5 12.96 5 15 5 C15.103125 5.639375 15.20625 6.27875 15.3125 6.9375 C15.6528125 7.9584375 15.6528125 7.9584375 16 9 C16.99 9.33 17.98 9.66 19 10 C16.525 9.505 16.525 9.505 14 9 C14 8.01 14 7.02 14 6 C11.36 6 8.72 6 6 6 C5.67 4.35 5.34 2.7 5 1 C3.35 1 1.7 1 0 1 C0 0.67 0 0.34 0 0 Z " fill="#D7C81E" transform="translate(20,50)"/>
<path d="M0 0 C0 0.99 0 1.98 0 3 C-1.32 3.33 -2.64 3.66 -4 4 C-3.96519531 4.69867188 -3.93039063 5.39734375 -3.89453125 6.1171875 C-3.86746094 7.02726562 -3.84039062 7.93734375 -3.8125 8.875 C-3.77769531 9.77992187 -3.74289063 10.68484375 -3.70703125 11.6171875 C-3.80371094 12.40351562 -3.90039062 13.18984375 -4 14 C-4.99 14.66 -5.98 15.32 -7 16 C-7.66 16.99 -8.32 17.98 -9 19 C-9 17.02 -9 15.04 -9 13 C-7.68 12.67 -6.36 12.34 -5 12 C-5.03480469 11.38511719 -5.06960937 10.77023438 -5.10546875 10.13671875 C-5.13253906 9.32847656 -5.15960938 8.52023438 -5.1875 7.6875 C-5.23970703 6.48673828 -5.23970703 6.48673828 -5.29296875 5.26171875 C-5 3 -5 3 -3.61328125 1.20703125 C-2 0 -2 0 0 0 Z " fill="#FAD12C" transform="translate(48,81)"/>
<path d="M0 0 C4.95 0 9.9 0 15 0 C14.01 1.485 14.01 1.485 13 3 C10.9765625 3.36328125 10.9765625 3.36328125 8.625 3.3125 C7.85414062 3.30863281 7.08328125 3.30476563 6.2890625 3.30078125 C3.81997531 2.97634488 2.14820728 2.23105029 0 1 C0 0.67 0 0.34 0 0 Z " fill="#3AC06B" transform="translate(85,64)"/>
<path d="M0 0 C0.66 0.33 1.32 0.66 2 1 C-0.55038006 3.24433445 -2.28700061 4.07917258 -5.625 5 C-9.25073889 5.68257524 -9.25073889 5.68257524 -11 9 C-12.9453125 9.29296875 -12.9453125 9.29296875 -15.125 9.1875 C-17.043125 9.0946875 -17.043125 9.0946875 -19 9 C-19 8.67 -19 8.34 -19 8 C-17.35 8 -15.7 8 -14 8 C-14 7.34 -14 6.68 -14 6 C-9.74699477 3.71789964 -5.6465311 2.27551834 -1 1 C-0.67 0.67 -0.34 0.34 0 0 Z " fill="#C55A14" transform="translate(134,60)"/>
<path d="M0 0 C2.49505962 2.49505962 2.35948376 3.67328888 2.625 7.125 C2.69976562 8.03507812 2.77453125 8.94515625 2.8515625 9.8828125 C2.92503906 10.93082031 2.92503906 10.93082031 3 12 C3.66 12 4.32 12 5 12 C6.28317892 15.84953676 6.06643637 18.94738135 6 23 C5.67 23 5.34 23 5 23 C2.28756911 15.51369074 0 8.01458058 0 0 Z " fill="#FAD233" transform="translate(72,108)"/>
<path d="M0 0 C0.99 0.495 0.99 0.495 2 1 C1.938125 1.9075 1.87625 2.815 1.8125 3.75 C1.67666105 6.97347347 1.67666105 6.97347347 3.5 8.8125 C5.51024913 11.74411331 5.30211673 13.73508706 5.1875 17.25 C5.14689453 18.86648437 5.14689453 18.86648437 5.10546875 20.515625 C5.07066406 21.33546875 5.03585938 22.1553125 5 23 C4.67 23 4.34 23 4 23 C4 19.37 4 15.74 4 12 C2.68 11.34 1.36 10.68 0 10 C0 6.7 0 3.4 0 0 Z " fill="#FFB8A2" transform="translate(138,93)"/>
<path d="M0 0 C0.66 0.33 1.32 0.66 2 1 C1.38125 1.37125 0.7625 1.7425 0.125 2.125 C-2.5510596 4.48622906 -3.0936844 6.60131652 -4 10 C-3.34 10 -2.68 10 -2 10 C-2.33 11.32 -2.66 12.64 -3 14 C-3 13.34 -3 12.68 -3 12 C-3.99 12 -4.98 12 -6 12 C-6.52849741 6.71502591 -6.52849741 6.71502591 -6 4 C-3 1.5 -3 1.5 0 0 Z " fill="#48C273" transform="translate(64,39)"/>
<path d="M0 0 C0.33 0.66 0.66 1.32 1 2 C0.54625 2.886875 0.0925 3.77375 -0.375 4.6875 C-2.20012588 7.94498283 -2.20012588 7.94498283 -2.4375 11.6875 C-3 15 -3 15 -5.0625 16.9375 C-5.701875 17.288125 -6.34125 17.63875 -7 18 C-6.125 13.125 -6.125 13.125 -5 12 C-4.896875 10.9275 -4.79375 9.855 -4.6875 8.75 C-3.94096911 4.67801333 -2.79228337 2.97243068 0 0 Z " fill="#FDE68E" transform="translate(44,96)"/>
<path d="M0 0 C0.99 0.33 1.98 0.66 3 1 C4.77508247 5.18323632 5.48493881 9.39457167 6.125 13.875 C6.29257813 15.02742188 6.46015625 16.17984375 6.6328125 17.3671875 C6.75398438 18.23601562 6.87515625 19.10484375 7 20 C4 18 4 18 3.33984375 15.28515625 C3.20707031 14.22167969 3.07429688 13.15820312 2.9375 12.0625 C2.44290176 8.1857919 2.19818286 6.29727429 0 3 C0 2.01 0 1.02 0 0 Z " fill="#FAD02A" transform="translate(65,88)"/>
<path d="M0 0 C0.99 0.495 0.99 0.495 2 1 C2 1.99 2 2.98 2 4 C2.66 4 3.32 4 4 4 C4.25 6.3125 4.25 6.3125 4 9 C2.68 9.99 1.36 10.98 0 12 C0 8.04 0 4.08 0 0 Z " fill="#FF4C13" transform="translate(146,80)"/>
<path d="M0 0 C4.62 0 9.24 0 14 0 C14 1.32 14 2.64 14 4 C14.99 4.33 15.98 4.66 17 5 C15.68 5 14.36 5 13 5 C12.67 4.34 12.34 3.68 12 3 C9.70895731 2.60794432 9.70895731 2.60794432 7.0625 2.5 C2.22137405 2.22137405 2.22137405 2.22137405 0 0 Z " fill="#32BE66" transform="translate(81,53)"/>
<path d="M0 0 C2.4375 1.125 2.4375 1.125 5 3 C5.8125 6.1875 5.8125 6.1875 6 9 C7.98 9.66 9.96 10.32 12 11 C12 11.99 12 12.98 12 14 C10.66666667 13.33333333 9.33333333 12.66666667 8 12 C7.319375 11.773125 6.63875 11.54625 5.9375 11.3125 C2.22423074 8.79705953 1.36632893 4.09898678 0 0 Z " fill="#FDECAA" transform="translate(63,124)"/>
<path d="M0 0 C1.62752231 0.25523874 3.25203196 0.52974494 4.875 0.8125 C6.23238281 1.03873047 6.23238281 1.03873047 7.6171875 1.26953125 C10 2 10 2 12 5 C14.55183404 6.20450304 14.55183404 6.20450304 17 7 C15.4375 7.75 15.4375 7.75 13 8 C11.22347088 7.06328465 9.44855836 6.11619459 7.74609375 5.05078125 C5.8754241 3.85845611 5.8754241 3.85845611 3.125 2.875 C1 2 1 2 0 0 Z " fill="#7AC038" transform="translate(48,60)"/>
<path d="M0 0 C0.33 0.66 0.66 1.32 1 2 C1.99 2 2.98 2 4 2 C4 4.31 4 6.62 4 9 C3.01 9.495 3.01 9.495 2 10 C2 9.34 2 8.68 2 8 C0.68 7.67 -0.64 7.34 -2 7 C-1.34 7 -0.68 7 0 7 C0 4.69 0 2.38 0 0 Z " fill="#FEF1C3" transform="translate(71,126)"/>
<path d="M0 0 C1.98 0 3.96 0 6 0 C6 1.65 6 3.3 6 5 C3.69 5 1.38 5 -1 5 C-0.67 3.35 -0.34 1.7 0 0 Z " fill="#FF4206" transform="translate(123,92)"/>
<path d="M0 0 C-4.77941176 4.93872549 -4.77941176 4.93872549 -7.9453125 5.09765625 C-9.96354167 5.06510417 -11.98177083 5.03255208 -14 5 C-13.01 4.34 -12.02 3.68 -11 3 C-10.236875 2.46375 -9.47375 1.9275 -8.6875 1.375 C-5.56118299 -0.22451103 -3.46435214 -0.24169899 0 0 Z " fill="#FFA68B" transform="translate(123,82)"/>
<path d="M0 0 C0.99 0 1.98 0 3 0 C3 0.99 3 1.98 3 3 C1.329375 3.433125 1.329375 3.433125 -0.375 3.875 C-4.00291092 4.69241329 -4.00291092 4.69241329 -6 7 C-6.99 7 -7.98 7 -9 7 C-8.625 5.0625 -8.625 5.0625 -8 3 C-5.29120665 1.64560332 -2.99066732 1.93498549 0 2 C0 1.34 0 0.68 0 0 Z " fill="#33A648" transform="translate(157,45)"/>
<path d="M0 0 C2.34513026 1.25073614 3.75140469 2.28604639 4.640625 4.83984375 C4.96556865 6.2470594 5.27137421 7.65882157 5.55859375 9.07421875 C5.9410359 11.12208946 5.9410359 11.12208946 7.1875 13.25 C8.248268 15.53473108 7.6871232 16.64136434 7 19 C4.17585184 13.94280446 2.67175689 9.82189304 2 4 C1.04415562 1.66411677 1.04415562 1.66411677 0 0 Z " fill="#FDE68E" transform="translate(59,83)"/>
<path d="M0 0 C1.32 0.66 2.64 1.32 4 2 C3.67 3.32 3.34 4.64 3 6 C-2.94 6 -8.88 6 -15 6 C-15 5.67 -15 5.34 -15 5 C-6.585 4.505 -6.585 4.505 2 4 C1.34 2.68 0.68 1.36 0 0 Z " fill="#55C57A" transform="translate(98,58)"/>
<path d="M0 0 C5.32860278 -0.50748598 7.78233085 0.81331664 12 4 C12.99 4.66 13.98 5.32 15 6 C12.1875 6.1875 12.1875 6.1875 9 6 C7.97895449 5.02149805 6.9793879 4.02019573 6 3 C2.89160979 2.2730774 2.89160979 2.2730774 0 2 C0 1.34 0 0.68 0 0 Z " fill="#86C134" transform="translate(20,48)"/>
<path d="M0 0 C1.485 0.99 1.485 0.99 3 2 C4.11375 2.103125 5.2275 2.20625 6.375 2.3125 C10.73499643 3.13939587 12.18310018 4.67093658 15 8 C13.35 8 11.7 8 10 8 C9.67 6.68 9.34 5.36 9 4 C7.88625 4.020625 6.7725 4.04125 5.625 4.0625 C2 4 2 4 0 3 C0 2.01 0 1.02 0 0 Z " fill="#FDCA00" transform="translate(48,147)"/>
<path d="M0 0 C2.01822917 0.06510417 4.03645833 0.13020833 6.0546875 0.1953125 C3.76134156 1.72420979 1.5430331 3.09306349 -0.8828125 4.3828125 C-1.55183594 4.74761719 -2.22085938 5.11242187 -2.91015625 5.48828125 C-5.33664016 6.33126319 -6.55787879 6.03385186 -8.9453125 5.1953125 C-8.1615625 4.7415625 -7.3778125 4.2878125 -6.5703125 3.8203125 C-0.47628595 0.04781987 -0.47628595 0.04781987 0 0 Z " fill="#FFA98E" transform="translate(122.9453125,128.8046875)"/>
<path d="M0 0 C1.65 0 3.3 0 5 0 C5.33 0.66 5.66 1.32 6 2 C8.8159849 2.46898963 8.8159849 2.46898963 12.0625 2.625 C13.71958984 2.73714844 13.71958984 2.73714844 15.41015625 2.8515625 C16.26480469 2.90054688 17.11945313 2.94953125 18 3 C18 3.33 18 3.66 18 4 C13.05 4 8.1 4 3 4 C2.67 3.01 2.34 2.02 2 1 C1.34 0.67 0.68 0.34 0 0 Z " fill="#32B94C" transform="translate(77,71)"/>
<path d="M0 0 C0 0.33 0 0.66 0 1 C-0.58007812 1.12117188 -1.16015625 1.24234375 -1.7578125 1.3671875 C-5.37680254 2.1435385 -8.82145249 2.9359924 -12.3125 4.1875 C-15.19075776 5.05767095 -16.21381365 4.83763812 -19 4 C-12.44995746 1.30292366 -7.11513755 -0.53699151 0 0 Z " fill="#FF9776" transform="translate(139,77)"/>
<path d="M0 0 C2.64 0 5.28 0 8 0 C7.4225 0.268125 6.845 0.53625 6.25 0.8125 C3.95215329 1.92423585 3.95215329 1.92423585 2.0625 3.625 C-0.46559669 5.31039779 -2.02167594 5.24819367 -5 5 C-4.01 4.67 -3.02 4.34 -2 4 C-2 3.34 -2 2.68 -2 2 C-1.34 2 -0.68 2 0 2 C0 1.34 0 0.68 0 0 Z " fill="#FF4F18" transform="translate(122,75)"/>
<path d="M0 0 C2.9375 1.625 2.9375 1.625 6 4 C6.6875 7.0625 6.6875 7.0625 7 10 C8.43691955 11.85801239 8.43691955 11.85801239 10 13 C8.35 12.67 6.7 12.34 5 12 C4.87625 10.3603125 4.87625 10.3603125 4.75 8.6875 C4.37989701 4.96556057 4.37989701 4.96556057 1.9375 3.1875 C1.298125 2.795625 0.65875 2.40375 0 2 C0 1.34 0 0.68 0 0 Z " fill="#4BC374" transform="translate(102,42)"/>
<path d="M0 0 C1.258125 -0.04125 2.51625 -0.0825 3.8125 -0.125 C4.52019531 -0.14820312 5.22789063 -0.17140625 5.95703125 -0.1953125 C8 0 8 0 11 2 C10.67 2.99 10.34 3.98 10 5 C9.34 5 8.68 5 8 5 C8 4.34 8 3.68 8 3 C5.36 2.34 2.72 1.68 0 1 C0 0.67 0 0.34 0 0 Z " fill="#A4C02B" transform="translate(79,76)"/>
<path d="M0 0 C-0.62003906 0.30679688 -1.24007812 0.61359375 -1.87890625 0.9296875 C-3.2520806 1.62259684 -4.60737388 2.3526687 -5.9375 3.125 C-8.41109822 4.17440531 -10.33953538 4.14780359 -13 4 C-9.41420832 -0.98892755 -5.61771415 -0.43213186 0 0 Z " fill="#38A448" transform="translate(129,61)"/>
<path d="M0 0 C2.97 0 5.94 0 9 0 C9.66 1.32 10.32 2.64 11 4 C7.37 3.34 3.74 2.68 0 2 C0 1.34 0 0.68 0 0 Z " fill="#34BE68" transform="translate(102,34)"/>
<path d="M0 0 C0 0.33 0 0.66 0 1 C-1.670625 1.433125 -1.670625 1.433125 -3.375 1.875 C-7.00291092 2.69241329 -7.00291092 2.69241329 -9 5 C-10.32 5 -11.64 5 -13 5 C-13 4.34 -13 3.68 -13 3 C-8.44573816 0.33409063 -5.26053037 -0.31563182 0 0 Z " fill="#FF4B12" transform="translate(126,136)"/>
<path d="M0 0 C2.88208966 0.64046437 4.56717555 1.34730626 6.22265625 3.84375 C9 9.33870968 9 9.33870968 9 12 C8.01 11.67 7.02 11.34 6 11 C5.690625 9.906875 5.38125 8.81375 5.0625 7.6875 C3.96645295 3.88357199 2.98015542 2.48346285 0 0 Z " fill="#FBD749" transform="translate(57,123)"/>
<path d="M0 0 C0.99 0.33 1.98 0.66 3 1 C3 3.64 3 6.28 3 9 C1.35 9.66 -0.3 10.32 -2 11 C-1.34 10.01 -0.68 9.02 0 8 C0.24055468 5.94290404 0.24055468 5.94290404 0.125 3.8125 C0.08375 2.554375 0.0425 1.29625 0 0 Z " fill="#FFB7A0" transform="translate(134,108)"/>
<path d="M0 0 C1.98 0.99 1.98 0.99 4 2 C4 6.29 4 10.58 4 15 C3.01 15 2.02 15 1 15 C1.66 11.04 2.32 7.08 3 3 C2.34 3 1.68 3 1 3 C0.67 2.01 0.34 1.02 0 0 Z " fill="#FFB098" transform="translate(139,78)"/>
<path d="M0 0 C1.65 0 3.3 0 5 0 C5.33 1.65 5.66 3.3 6 5 C4.02 5 2.04 5 0 5 C0 3.35 0 1.7 0 0 Z " fill="#21B749" transform="translate(20,43)"/>
<path d="M0 0 C2.29013653 3.4352048 2.17842973 4.985331 2 9 C1.01 9 0.02 9 -1 9 C-1.09765625 2.84765625 -1.09765625 2.84765625 -1 1 C-0.67 0.67 -0.34 0.34 0 0 Z " fill="#FAD338" transform="translate(56,102)"/>
<path d="M0 0 C2.375 -0.1875 2.375 -0.1875 5 0 C5.66 0.99 6.32 1.98 7 3 C7.99 3.66 8.98 4.32 10 5 C7.25 5.3125 7.25 5.3125 4 5 C1.625 2.5 1.625 2.5 0 0 Z " fill="#38BB4B" transform="translate(67,66)"/>
<path d="M0 0 C0.78375 0.04125 1.5675 0.0825 2.375 0.125 C1.75625 0.2075 1.1375 0.29 0.5 0.375 C-1.80937567 0.93758459 -1.80937567 0.93758459 -2.875 3.1875 C-3.1225 3.826875 -3.37 4.46625 -3.625 5.125 C-6.265 5.125 -8.905 5.125 -11.625 5.125 C-11.625 4.795 -11.625 4.465 -11.625 4.125 C-10.51125 3.83625 -9.3975 3.5475 -8.25 3.25 C-4.76833519 2.16948333 -3.46064564 0.16479265 0 0 Z " fill="#EB4606" transform="translate(138.625,59.875)"/>
<path d="M0 0 C0.33 0 0.66 0 1 0 C1.12117188 0.59167969 1.24234375 1.18335937 1.3671875 1.79296875 C2.26744643 6.03803585 3.20456621 10.02439661 5 14 C2 13 2 13 0.8125 10.9375 C-0.23642055 7.14524878 -0.13319932 3.92937998 0 0 Z " fill="#FDEFB8" transform="translate(61,87)"/>
<path d="M0 0 C1.98 0 3.96 0 6 0 C5.67 1.32 5.34 2.64 5 4 C3 4 1 4 -1 4 C-0.67 2.68 -0.34 1.36 0 0 Z " fill="#FACF26" transform="translate(49,75)"/>
<path d="M0 0 C2.125 0.375 2.125 0.375 4 1 C3.01 1 2.02 1 1 1 C0.67 2.32 0.34 3.64 0 5 C-2.64 5 -5.28 5 -8 5 C-8 4.67 -8 4.34 -8 4 C-6.576875 3.566875 -6.576875 3.566875 -5.125 3.125 C-1.94788422 2.23174891 -1.94788422 2.23174891 0 0 Z " fill="#DA4F0C" transform="translate(145,55)"/>
<path d="M0 0 C1.45945288 0.08708669 2.91765868 0.19526907 4.375 0.3125 C5.59316406 0.39951172 5.59316406 0.39951172 6.8359375 0.48828125 C9 1 9 1 11 4 C9.35232753 3.71890887 7.70686855 3.42481474 6.0625 3.125 C4.68771484 2.88136719 4.68771484 2.88136719 3.28515625 2.6328125 C2.53105469 2.42398438 1.77695312 2.21515625 1 2 C0.67 1.34 0.34 0.68 0 0 Z " fill="#C7C722" transform="translate(48,63)"/>
<path d="M0 0 C2.375 -0.1875 2.375 -0.1875 5 0 C5.66 0.99 6.32 1.98 7 3 C9.05003955 4.19232613 9.05003955 4.19232613 11 5 C9.25 5.75 9.25 5.75 7 6 C4.9375 4.1875 4.9375 4.1875 3 2 C2.01 1.34 1.02 0.68 0 0 Z " fill="#02A132" transform="translate(126,29)"/>
<path d="M0 0 C2.75 -0.25 2.75 -0.25 6 0 C8.375 2 8.375 2 10 4 C8.68 4.33 7.36 4.66 6 5 C5.67 4.01 5.34 3.02 5 2 C3.35 1.67 1.7 1.34 0 1 C0 0.67 0 0.34 0 0 Z " fill="#FEEFBB" transform="translate(51,82)"/>
<path d="M0 0 C1.98 0 3.96 0 6 0 C4.6875 2 4.6875 2 3 4 C2.01 4 1.02 4 0 4 C0 2.68 0 1.36 0 0 Z " fill="#FF5723" transform="translate(111,80)"/>
</svg>
